<?xml version="1.0" standalone="no"?>
<!DOCTYPE svg PUBLIC "-//W3C//DTD SVG 1.1//EN" "http://www.w3.org/Graphics/SVG/1.1/DTD/svg11.dtd" >
<svg>
<metadata>
Created by FontForge 20090914 at Thu Jul 15 03:20:09 2021
 By www-data
Matthew Skala (2011, 2021); based on code by Norbert Schwarz (1986, 2011)
</metadata>
<defs>
<font id="OCRB" horiz-adv-x="723" >
  <font-face 
    font-family="OCR B "
    font-weight="400"
    font-stretch="normal"
    units-per-em="1000"
    panose-1="2 0 5 9 0 0 0 0 0 0"
    ascent="800"
    descent="-200"
    x-height="524"
    cap-height="701"
    bbox="-87 -335.998 784 938"
    underline-thickness="0"
    underline-position="0"
    unicode-range="U+0020-U+2206"
  />
<missing-glyph 
 />
    <glyph glyph-name=".notdef" 
 />
    <glyph glyph-name="space" unicode=" " 
 />
    <glyph glyph-name="exclam" unicode="!" 
d="M290 -23v46c0 13.333 5 25 15 35s21.667 15 35 15h46c13.333 0 25 -5 35 -15s15 -21.667 15 -35v-46c0 -13.333 -5 -25 -15 -35s-21.667 -15 -35 -15h-46c-13.333 0 -25 5 -35 15s-15 21.667 -15 35zM313 329v391c0 14 5 25.833 15 35.5s21.667 14.5 35 14.5
s25 -5 35 -15s15 -21.667 15 -35v-391c0 -13.333 -4.83301 -25 -14.5 -35s-21.5 -15 -35.5 -15s-25.833 4.83301 -35.5 14.5s-14.5 21.5 -14.5 35.5z" />
    <glyph glyph-name="quotedbl" unicode="&#x22;" 
d="M161 500l-0.000976562 219.999c0 13.333 5 25 15 35s21.667 15 35 15h29c13.333 0 25.166 -4.66699 35.499 -14s15.5 -19.666 15.5 -30.999c0 -0.666992 -0.166992 -1.5 -0.5 -2.5s-0.5 -1.83301 -0.5 -2.5l-29 -227c-1.33301 -11.333 -6.66602 -21.333 -15.999 -30
s-20.666 -13 -33.999 -13c-12.667 0 -24.167 5 -34.5 15s-15.5 21.667 -15.5 35zM452.999 499.999v220c0 14 5 25.833 15 35.5s21.667 14.5 35 14.5h23c12.667 0 24.167 -4.66699 34.5 -14s15.5 -20 15.5 -32v-4l-25 -230c-2.66699 -11.333 -8.16699 -20.833 -16.5 -28.5
s-18.833 -11.5 -31.5 -11.5c-13.333 0 -25 5 -35 15s-15 21.667 -15 35z" />
    <glyph glyph-name="numbersign" unicode="#" 
d="M113 254c0 14 4.83398 25.8311 14.501 35.498s21.5 14.5 35.5 14.5h17l36 157h-33c-13.333 0 -25 4.83301 -35 14.5s-15 21.5 -15 35.5s4.83301 25.833 14.5 35.5s21.5 14.5 35.5 14.5h55l39 173c2.66699 10.667 8.5 19.834 17.5 27.501s19.5 11.5 31.5 11.5
c13.333 0 25 -5.16699 35 -15.5s15 -21.833 15 -34.5l-36 -162h126l39 173c9.33301 26 25.666 39 48.999 39c13.333 0 25 -4.83301 35 -14.5s15 -21.5 15 -35.5v-11l-34 -151c12 -2 22.167 -7.66699 30.5 -17s12.5 -20.333 12.5 -33c0 -13.333 -5 -25 -15 -35
s-21.667 -15 -35 -15h-16l-35 -157h31c14 0 25.833 -5 35.5 -15s14.5 -21.667 14.5 -35s-5 -25 -15 -35s-21.667 -15 -35 -15h-54l-40 -178c-2.66699 -10.667 -8.66699 -19.834 -18 -27.501s-19.666 -11.5 -30.999 -11.5c-13.333 0 -25 5 -35 15s-15 21.667 -15 35v11
l35 156h-125l-40 -178c-2.66699 -11.333 -8.5 -20.666 -17.5 -27.999s-19.5 -11 -31.5 -11c-13.333 0 -25 5 -35 15s-15 21.667 -15 35l37 167c-12.667 1.33301 -23.334 6.83301 -32.001 16.5s-13 20.834 -13 33.501zM282.001 303.998h126l35 157h-125z" />
    <glyph glyph-name="dollar" unicode="$" 
d="M113 177c0 14 5.00098 25.832 15.001 35.499s21.667 14.5 35 14.5c16.667 0 32.334 -10.5 47.001 -31.5s25.667 -33.5 33 -37.5c16 -8 39.333 -13.333 70 -16v211c-23.333 6.66699 -43 12.834 -59 18.501s-33.333 13.667 -52 24s-33.834 21.666 -45.501 33.999
s-21.334 27.833 -29.001 46.5s-11.5 39.667 -11.5 63c0 52 18.5 92.667 55.5 122s84.167 47.333 141.5 54v5c0 14 5 25.833 15 35.5s21.667 14.5 35 14.5s25 -5 35 -15s15 -21.667 15 -35v-5c73.333 -9.33301 129 -42 167 -98c6.66699 -8.66699 10 -18.334 10 -29.001
c0 -13.333 -5 -24.833 -15 -34.5s-21.667 -14.5 -35 -14.5s-27 7 -41 21c-20 28.667 -48.667 46.334 -86 53.001v-187c30.667 -9.33301 55.834 -18.166 75.501 -26.499s40.167 -19.833 61.5 -34.5s37.166 -32.834 47.499 -54.501s15.5 -47.167 15.5 -76.5
c0 -52.667 -18.833 -95.667 -56.5 -129s-85.5 -54.333 -143.5 -63v-2c0 -13.333 -5 -25 -15 -35s-21.667 -15 -35 -15s-25 4.83301 -35 14.5s-15 21.5 -15 35.5v2c-104 8.66699 -169.667 47.334 -197 116.001c-2 4 -3 10.333 -3 19zM215.001 534.999c0 -6.66699 1 -13 3 -19
s5.5 -11.333 10.5 -16l13 -12c3.66699 -3.33301 9.5 -6.83301 17.5 -10.5l17.5 -8c3.66699 -1.66699 10.167 -4.16699 19.5 -7.5s15 -5.33301 17 -6v157c-65.333 -8.66699 -98 -34.667 -98 -78zM413.001 144.999c66.667 12.667 100 42.334 100 89.001
c0 37.333 -33.333 67.666 -100 90.999v-180z" />
    <glyph glyph-name="percent" unicode="%" 
d="M113 43c0 10 2.33398 18.333 7.00098 25l406 685c9.33301 9.33301 21.666 14 36.999 14c13.333 0 25 -5 35 -15s15 -21.667 15 -35c0 -8.66699 -2.33301 -17 -7 -25l-399 -675c-11.333 -16.667 -26 -25 -44 -25c-13.333 0 -25 5 -35 15s-15 22 -15 36zM113.001 628v4
c0 39.333 12.333 72.666 37 99.999s55.667 41 93 41c38 0 69.167 -14 93.5 -42s36.5 -62.333 36.5 -103c-1.33301 -39.333 -13.833 -73.166 -37.5 -101.499s-54.5 -42.5 -92.5 -42.5c-40.667 0 -72.5 14 -95.5 42s-34.5 62 -34.5 102zM213.001 628c0 -26 7 -40.667 21 -44h9
c10 0 17.5 4.5 22.5 13.5s7.5 19.167 7.5 30.5c0 30 -10 45 -30 45s-30 -15 -30 -45zM353.001 131v4c0 39.333 12.333 72.666 37 99.999s55.667 41 93 41c38 0 69.167 -14 93.5 -42s36.5 -62.333 36.5 -103c-1.33301 -39.333 -14 -73.166 -38 -101.499
s-54.667 -42.5 -92 -42.5c-40 0 -71.667 14 -95 42s-35 62 -35 102zM453.001 131c0 -9.33301 1.66895 -18.667 5.00195 -28s8.66602 -14 15.999 -14c0.666992 0 1.66699 -0.666992 3 -2h6c9.33301 0 16.666 4.5 21.999 13.5s8 19.167 8 30.5c0 30 -10 45 -30 45
s-30 -15 -30 -45z" />
    <glyph glyph-name="ampersand" unicode="&#x26;" 
d="M113 205c0 77.333 32.335 144.668 97.002 202.001c-46 62.667 -69 123 -69 181c0 57.333 18.167 102.5 54.5 135.5s84.5 49.5 144.5 49.5c50.667 0 94 -13.5 130 -40.5s54 -63.833 54 -110.5c0 -19.333 -3.16699 -38 -9.5 -56s-12.833 -33 -19.5 -45
s-18.167 -26 -34.5 -42s-28 -27 -35 -33s-21 -16.667 -42 -32l-35.5 -26l143 -199c14.667 33.333 22 73.333 22 120c0 14 5 25.833 15 35.5s21.667 14.5 35 14.5s25 -5 35 -15s15 -21.667 15 -35c0 -84.667 -18.667 -154.667 -56 -210c1.33301 -2 4.33301 -6 9 -12
s8.16699 -10.833 10.5 -14.5s4.66602 -8.5 6.99902 -14.5s3.5 -12 3.5 -18c0 -13.333 -5 -25 -15 -35s-21.667 -15 -35 -15c-5.33301 0 -10.333 0.666992 -15 2s-8.83398 3.66602 -12.501 6.99902s-6.5 5.83301 -8.5 7.5s-5 5.5 -9 11.5s-6.33301 9.33301 -7 10
c-43.333 -27.333 -94 -41 -152 -41c-66.667 1.33301 -120 21.5 -160 60.5s-60 91.5 -60 157.5zM213.002 205.002c0 -75.333 40.666 -114.668 121.999 -118.001c34.667 0 64.334 7.66699 89.001 23l-154 214c-1.33301 -1.33301 -5.16602 -5.66602 -11.499 -12.999
l-12.5 -14.5c-2 -2.33301 -5.33301 -6.83301 -10 -13.5s-7.83398 -12.167 -9.50098 -16.5l-6.5 -17c-2.66699 -7 -4.5 -14 -5.5 -21s-1.5 -14.833 -1.5 -23.5zM241.001 588c0 -36 15.667 -76.333 47 -121c50.667 36 85.667 66 105 90c20.667 25.333 31 47 31 65
s-8.5 31 -25.5 39s-36.5 12 -58.5 12c-66 0 -99 -28.333 -99 -85z" />
    <glyph glyph-name="quotesingle" unicode="'" 
d="M276 720c0 14 5.00098 25.8311 15.001 35.498s21.667 14.5 35 14.5h81c12 -1.33301 22.333 -6.66602 31 -15.999s13 -19.666 13 -30.999c0 -0.666992 -0.333008 -1.66699 -1 -3l-21 -292c-6 -27.333 -22.333 -41 -49 -41h-34c-13.333 0 -24.833 4 -34.5 12
s-14.834 18.333 -15.501 31z" />
    <glyph glyph-name="parenleft" unicode="(" 
d="M256 371l-0.000976562 6.00098c2 162 72 291 210 387c8 6 17.333 9 28 9c13.333 0 25 -4.83301 35 -14.5s15 -21.5 15 -35.5c0 -20 -7.33301 -33.667 -22 -41c-51.333 -34.667 -91.666 -76.167 -120.999 -124.5s-44.333 -108.5 -45 -180.5v-5
c0 -124.667 55.333 -222.334 166 -293.001c14.667 -10 22 -24 22 -42c0 -14 -5 -25.833 -15 -35.5s-21.667 -14.5 -35 -14.5c-10 0 -19.333 2.66699 -28 8c-140 94 -210 219.333 -210 376z" />
    <glyph glyph-name="parenright" unicode=")" 
d="M181 37c0 18 7.33301 31.999 22 41.999c111.333 72.667 167 172 167 298c0 127.333 -55.667 229 -167 305c-6 2 -11.167 7.5 -15.5 16.5s-6.5 17.167 -6.5 24.5c0 13.333 5 25 15 35s21.667 15 35 15c10.667 0 20 -3 28 -9c140.667 -96.667 211 -225.667 211 -387
c0 -159.333 -70.333 -286.666 -211 -381.999c-8.66699 -5.33301 -18 -8 -28 -8c-13.333 0 -25 5 -35 15s-15 21.667 -15 35z" />
    <glyph glyph-name="asterisk" unicode="*" 
d="M113 446c0 13.333 5.16797 25.333 15.501 36s22.166 16 35.499 16l149 -49v151c0 14 5 25.833 15 35.5s21.667 14.5 35 14.5s25 -5 35 -15s15 -21.667 15 -35v-151l134 44c4.66699 2 10 3 16 3c13.333 0 25 -5 35 -15s15 -21.667 15 -35c0 -24 -11.667 -40 -35 -48
l-117 -39l77 -131c4 -8 6 -16.333 6 -25c0 -14 -4.83301 -25.833 -14.5 -35.5s-21.5 -14.5 -35.5 -14.5c-15.333 0 -27.333 4.33301 -36 13l-84 144l-107 -144c-9.33301 -8.66699 -21.333 -13 -36 -13c-14 0 -25.833 5 -35.5 15s-14.5 21.667 -14.5 35
c0 10 3.33301 20 10 30l90 121l-134 44c-22.667 9.33301 -34 25.333 -34 48z" />
    <glyph glyph-name="plus" unicode="+" 
d="M113 380c0 14 5 25.833 15 35.5s21.667 14.5 35 14.5h150v178c0 14 4.83301 25.833 14.5 35.5s21.5 14.5 35.5 14.5s25.833 -5 35.5 -15s14.5 -21.667 14.5 -35v-178h150c13.333 0 25 -5 35 -15s15 -21.667 15 -35s-5 -25 -15 -35s-21.667 -15 -35 -15h-150v-179
c0 -13.333 -5 -25 -15 -35s-21.667 -15 -35 -15s-25 4.83301 -35 14.5s-15 21.5 -15 35.5v179h-150c-13.333 0 -25 4.83301 -35 14.5s-15 21.5 -15 35.5z" />
    <glyph glyph-name="comma" unicode="," 
d="M159 -134c0 8.66699 2 17 6 25l178 302c8.66699 9.33301 21 14 37 14h111c13.333 0 25 -4.83301 35 -14.5s15 -21.5 15 -35.5v-31c0 -14 -4.66699 -25.667 -14 -35l-255 -261c-9.33301 -9.33301 -21 -14 -35 -14h-28c-14 0 -25.833 4.83301 -35.5 14.5
s-14.5 21.5 -14.5 35.5z" />
    <glyph glyph-name="hyphen" unicode="-" 
d="M113 366v28c0 14 4.83301 25.833 14.5 35.5s21.5 14.5 35.5 14.5h400c14 0 25.833 -5 35.5 -15s14.5 -21.667 14.5 -35v-28c0 -13.333 -4.83301 -25 -14.5 -35s-21.5 -15 -35.5 -15h-400c-14 0 -25.833 4.83301 -35.5 14.5s-14.5 21.5 -14.5 35.5z" />
    <glyph glyph-name="period" unicode="." 
d="M241 40v97c0 13.333 5 25 15 35s21.667 15 35 15h143c13.333 0 25 -4.83301 35 -14.5s15 -21.5 15 -35.5v-97c0 -14 -5 -25.833 -15 -35.5s-21.667 -14.5 -35 -14.5h-143c-13.333 0 -25 5 -35 15s-15 21.667 -15 35z" />
    <glyph glyph-name="slash" unicode="/" 
d="M173 37c0 7.33301 1.33301 13.666 4 18.999l280 686c3.33301 8.66699 9.33301 16 18 22s18 9 28 9c13.333 0 25 -5 35 -15s15 -21.667 15 -35c0 -7.33301 -1.33301 -13.666 -4 -18.999l-280 -686c-3.33301 -8.66699 -9.33301 -16 -18 -22s-18 -9 -28 -9
c-13.333 0 -25 4.83301 -35 14.5s-15 21.5 -15 35.5z" />
    <glyph glyph-name="zero" unicode="0" 
d="M113 343c0 44.667 0.832031 82.332 2.49902 112.999s5.16699 64 10.5 100s13.666 65.833 24.999 89.5s26 45.834 44 66.501s41 36 69 46s61 15 99 15c37.333 0 70 -5 98 -15s51 -25.333 69 -46s32.667 -43 44 -67s19.833 -53.833 25.5 -89.5s9.33398 -69 11.001 -100
s2.5 -68.5 2.5 -112.5c0 -46 -3.33301 -88.167 -10 -126.5s-17.334 -74.833 -32.001 -109.5s-36 -62.5 -64 -83.5s-61.333 -33.167 -100 -36.5c-2 0 -4.66699 -0.166992 -8 -0.5s-5.66602 -0.5 -6.99902 -0.5c-3.33301 0 -8.16602 0.166992 -14.499 0.5
s-11.166 0.5 -14.499 0.5c-48 0 -89 9.16699 -123 27.5s-59.833 44.5 -77.5 78.5s-30.334 71.167 -38.001 111.5s-11.5 86.5 -11.5 138.5zM212.999 342.998c0 -154.667 34 -239.334 102 -254.001c6.66699 -1.33301 22.667 -2 48 -2h22c85.333 0 128 85.333 128 256v46
c0 38.667 -0.833008 70.5 -2.5 95.5s-5.66699 52.5 -12 82.5s-16.833 53.667 -31.5 71s-33.667 28.333 -57 33c-6 1.33301 -21.667 2 -47 2c-40.667 0 -71.167 -8.33301 -91.5 -25s-34.833 -43 -43.5 -79c-10 -41.333 -15 -116.666 -15 -225.999z" />
    <glyph glyph-name="one" unicode="1" 
d="M144 566c0 15.333 5 27 15 35l183 157c9.33301 8 20 12 32 12h32c13.333 0 25 -5 35 -15s15 -21.667 15 -35v-680c0 -13.333 -5 -25 -15 -35s-21.667 -15 -35 -15s-25 4.83301 -35 14.5s-15 21.5 -15 35.5v598l-129 -110c-8.66699 -8 -19.667 -12 -33 -12
c-14 0 -25.833 5 -35.5 15s-14.5 21.667 -14.5 35z" />
    <glyph glyph-name="two" unicode="2" 
d="M130 670c0 20.667 7.00195 34.667 21.002 42c30.667 22 62.334 37.667 95.001 47s71.667 14 117 14c64.667 0 118.167 -19.667 160.5 -59s63.5 -90.666 63.5 -153.999c0 -25.333 -4.5 -49.666 -13.5 -72.999s-19 -42.5 -30 -57.5s-27.333 -31.667 -49 -50
s-38.334 -31.5 -50.001 -39.5s-29.834 -19.667 -54.501 -35c-26.667 -16.667 -45.834 -29.334 -57.501 -38.001s-25.667 -21.334 -42 -38.001s-28.166 -35.167 -35.499 -55.5s-11.666 -44.5 -12.999 -72.5h301c14 0 25.833 -5 35.5 -15s14.5 -21.667 14.5 -35
s-5 -25 -15 -35s-21.667 -15 -35 -15h-352c-13.333 0 -25 5 -35 15s-15 21.667 -15 35v21c0 52.667 3.33301 90.334 10 113.001c12 41.333 33.833 78 65.5 110s71.5 63.333 119.5 94c65.333 42 106.666 74.667 123.999 98c18 23.333 27 47.666 27 72.999
c0 34 -11.833 61.333 -35.5 82s-53.167 31 -88.5 31c-64 0 -115.333 -14.333 -154 -43c-10.667 -6 -20.334 -9 -29.001 -9c-13.333 0 -25 5 -35 15s-15 21.333 -15 34z" />
    <glyph glyph-name="three" unicode="3" 
d="M113 69c0 14 5.00293 25.832 15.0029 35.499s21.667 14.5 35 14.5c4.66699 0 11 -1.33301 19 -4c42 -18.667 87 -28 135 -28c52 0 95.5 12.167 130.5 36.5s53.833 60.166 56.5 107.499v9c0 48.667 -19.833 84.834 -59.5 108.501s-87.834 35.5 -144.501 35.5
c-13.333 0 -25 5 -35 15s-15 21.667 -15 35s3.66699 23.666 11 30.999l184 193h-279c-13.333 0 -25 5 -35 15s-15 21.667 -15 35c0 14 4.83301 25.833 14.5 35.5s21.5 14.5 35.5 14.5h363c13.333 0 25 -5 35 -15s15 -21.667 15 -35v-35c0 -12 -5 -23 -15 -33l-160 -168
c60 -15.333 108.333 -42.666 145 -81.999s55 -88.666 55 -147.999v-16c-2.66699 -73.333 -31.334 -131.5 -86.001 -174.5s-121.667 -64.5 -201 -64.5c-19.333 0 -38.833 1 -58.5 3s-41.334 5.5 -65.001 10.5s-43 13.333 -58 25s-22.5 26.167 -22.5 43.5z" />
    <glyph glyph-name="four" unicode="4" 
d="M113 214v43c0 8.66699 1.66699 15.667 5 21l217 463c3.33301 8 9.33301 14.833 18 20.5s17.667 8.5 27 8.5c13.333 0 25 -5 35 -15s15 -21.667 15 -35c0 -7.33301 -1.66699 -14.333 -5 -21l-204 -435h189v116c0 13.333 5 25 15 35s21.667 15 35 15s25 -5 35 -15
s15 -21.667 15 -35v-116h53c14 0 25.833 -5 35.5 -15s14.5 -21.667 14.5 -35s-5 -25 -15 -35s-21.667 -15 -35 -15h-53v-124c0 -13.333 -5 -25 -15 -35s-21.667 -15 -35 -15s-25 5 -35 15s-15 21.667 -15 35v124h-247c-13.333 0 -25 4.83301 -35 14.5s-15 21.5 -15 35.5z
" />
    <glyph glyph-name="five" unicode="5" 
d="M139 37c0 14 5.00098 25.833 15.001 35.5s21.667 14.5 35 14.5c137.333 0 226.333 36 267 108c11.333 21.333 17 42 17 62c0 46.667 -11 82 -33 106c-29.333 33.333 -83.666 50 -162.999 50c-22 0 -43.333 -1 -64 -3h-4c-13.333 0 -25 4.66699 -35 14s-15 20.333 -15 33
v3l14 251c1.33301 13.333 6.66602 24.5 15.999 33.5s20.666 13.5 33.999 13.5h294c14 0 25.833 -5 35.5 -15s14.5 -21.667 14.5 -35s-5 -25 -15 -35s-21.667 -15 -35 -15h-247l-8 -145h15c90.667 0 162.667 -21.667 216 -65s80 -107 80 -191
c0 -68.667 -28.333 -128.667 -85 -180c-67.333 -60 -167 -90 -299 -90c-13.333 0 -25 4.83301 -35 14.5s-15 21.5 -15 35.5z" />
    <glyph glyph-name="six" unicode="6" 
d="M113 229v11.001c0 82 23.333 163 70 243c18.667 31.333 41.667 64.5 69 99.5s50.333 63 69 84l80 88.5c8.66699 10 20.667 15 36 15c13.333 0 25 -5 35 -15s15 -21.667 15 -35c0 -12.667 -4.33301 -24 -13 -34c-83.333 -90 -141 -158.667 -173 -206
c18 4.66699 38.667 7 62 7c77.333 0 138.333 -23.333 183 -70s67 -109.334 67 -188.001c0 -71.333 -23.333 -129.5 -70 -174.5s-106.667 -67.5 -180 -67.5s-133 22.167 -179 66.5s-69.667 102.833 -71 175.5zM213 229.001c0 -44 13.666 -78.667 40.999 -104
s63.666 -38 108.999 -38c44.667 0 80.834 12.833 108.501 38.5s41.5 60.167 41.5 103.5c0 50.667 -12.667 89.667 -38 117s-62.666 41 -111.999 41c-48 0 -85 -14 -111 -42s-39 -66.667 -39 -116z" />
    <glyph glyph-name="seven" unicode="7" 
d="M113 708c0 14 4.83301 25.835 14.5 35.502s21.5 14.5 35.5 14.5h400c14 0 25.833 -5 35.5 -15s14.5 -21.667 14.5 -35c0 -49.333 -20 -104.333 -60 -165c-11.333 -16.667 -34.833 -46.834 -70.5 -90.501s-61.167 -78.834 -76.5 -105.501
c-44.667 -78.667 -67 -181 -67 -307c0 -13.333 -5 -25 -15 -35s-21.667 -15 -35 -15s-25 4.83301 -35 14.5s-15 21.5 -15 35.5c0 144 26.667 262.667 80 356c16 28 42.333 64.833 79 110.5s60.667 76.834 72 93.501c16.667 25.333 27.667 44.666 33 57.999h-340
c-13.333 0 -25 5 -35 15s-15 21.667 -15 35z" />
    <glyph glyph-name="eight" unicode="8" 
d="M113 200c0 82.667 48.668 157 146.001 223c-74.667 44.667 -112 103.667 -112 177c0 50.667 22 92.167 66 124.5s94 48.5 150 48.5c55.333 0 105.166 -16.333 149.499 -49s66.5 -74 66.5 -124c0 -40.667 -9.66699 -74.834 -29 -102.501s-46.666 -52.5 -81.999 -74.5
c96.667 -66 145 -140.333 145 -223c0 -53.333 -19.5 -100.833 -58.5 -142.5s-87.5 -65.167 -145.5 -70.5h-8c-2.66699 -0.666992 -6.66699 -1 -12 -1c-2.66699 0 -6.83398 0.166992 -12.501 0.5s-10.167 0.5 -13.5 0.5c-72.667 0 -132.5 19.833 -179.5 59.5
s-70.5 90.834 -70.5 153.501zM212.001 200c0 -35.333 14.334 -62.999 43.001 -82.999s64.667 -30 108 -30h21c35.333 0 65.666 11.167 90.999 33.5s38 48.833 38 79.5c0 61.333 -49.333 117.666 -148 168.999c-102 -52 -153 -108.333 -153 -169zM247.002 600.001
c0 -16 3 -30.167 9 -42.5s15.5 -23.333 28.5 -33s24.667 -17.334 35 -23.001s24.833 -12.5 43.5 -20.5c18.667 8 33.167 14.833 43.5 20.5s22 13.334 35 23.001s22.5 20.667 28.5 33s9 26.5 9 42.5c0 23.333 -12.5 41.333 -37.5 54s-51.167 19 -78.5 19
s-53.5 -6.33301 -78.5 -19s-37.5 -30.667 -37.5 -54z" />
    <glyph glyph-name="nine" unicode="9" 
d="M113 514c0 70.667 24.333 131.499 73 182.499s107.667 76.5 177 76.5c71.333 0 130.833 -23.833 178.5 -71.5s71.5 -110.167 71.5 -187.5c0 -47.333 -7 -90.166 -21 -128.499s-34 -80.166 -60 -125.499c-58.667 -98.667 -128.667 -184.334 -210 -257.001
c-10 -8.66699 -21 -13 -33 -13c-13.333 0 -25 4.83301 -35 14.5s-15 21.5 -15 35.5s5.33301 26.333 16 37c66 60 122.333 126.667 169 200c-18 -2.66699 -38.333 -4 -61 -4c-74.667 0 -135 23 -181 69s-69 103.333 -69 172zM213 513.999
c0 -42 13.499 -76.002 40.499 -102.002s63.5 -39 109.5 -39c79.333 0 126 23 140 69c6.66699 25.333 10 49.333 10 72c0 48.667 -13.667 87.334 -41 116.001s-63.666 43 -108.999 43c-42 0 -77.5 -15.667 -106.5 -47s-43.5 -68.666 -43.5 -111.999z" />
    <glyph glyph-name="colon" unicode=":" 
d="M259 40v80c0 14 5 25.833 15 35.5s21.667 14.5 35 14.5h108c13.333 0 25 -5 35 -15s15 -21.667 15 -35v-80c0 -13.333 -5 -25 -15 -35s-21.667 -15 -35 -15h-108c-13.333 0 -25 4.83301 -35 14.5s-15 21.5 -15 35.5zM259 403v80c0 14 5 25.833 15 35.5
s21.667 14.5 35 14.5h108c13.333 0 25 -5 35 -15s15 -21.667 15 -35v-80c0 -13.333 -4.83301 -25 -14.5 -35s-21.5 -15 -35.5 -15h-108c-14 0 -25.833 4.83301 -35.5 14.5s-14.5 21.5 -14.5 35.5z" />
    <glyph glyph-name="semicolon" unicode=";" 
d="M156 -129c0 8.66699 1.33301 15.667 4 21l124 253c7.33301 18.667 22.333 28 45 28h111c13.333 0 25 -5 35 -15s15 -21.667 15 -35c0 -1.33301 0.166992 -3.33301 0.5 -6s0.5 -4.66699 0.5 -6c0 -3.33301 -1 -6 -3 -8l-204 -267c-10 -10 -21.667 -15 -35 -15h-43
c-13.333 0 -25 4.83301 -35 14.5s-15 21.5 -15 35.5zM279 403v80c0 14 5 25.833 15 35.5s21.667 14.5 35 14.5h108c13.333 0 25 -5 35 -15s15 -21.667 15 -35v-80c0 -13.333 -4.83301 -25 -14.5 -35s-21.5 -15 -35.5 -15h-108c-14 0 -25.833 4.83301 -35.5 14.5
s-14.5 21.5 -14.5 35.5z" />
    <glyph glyph-name="less" unicode="&#x3c;" 
d="M113 380c0 15.333 4.33301 27.333 13 36l409 271c8 6 17.333 9 28 9c13.333 0 25 -5 35 -15s15 -21.667 15 -35c0 -14 -5 -26 -15 -36l-345 -230l345 -230c10 -10 15 -22 15 -36c0 -13.333 -5 -25 -15 -35s-21.667 -15 -35 -15c-10.667 0 -20 3 -28 9l-409 271
c-8.66699 8.66699 -13 20.667 -13 36z" />
    <glyph glyph-name="equal" unicode="=" 
d="M113 266c0 14 5 25.833 15 35.5s21.667 14.5 35 14.5h400c13.333 0 25 -5 35 -15s15 -21.667 15 -35s-4.83301 -25 -14.5 -35s-21.5 -15 -35.5 -15h-400c-14 0 -25.833 4.83301 -35.5 14.5s-14.5 21.5 -14.5 35.5zM113 494c0 14 4.83301 25.833 14.5 35.5
s21.5 14.5 35.5 14.5h400c14 0 25.833 -5 35.5 -15s14.5 -21.667 14.5 -35s-5 -25 -15 -35s-21.667 -15 -35 -15h-400c-13.333 0 -25 4.83301 -35 14.5s-15 21.5 -15 35.5z" />
    <glyph glyph-name="greater" unicode="&#x3e;" 
d="M113 114c0 13.333 4.66699 25.333 14 36l345 230l-345 230c-9.33301 10.667 -14 22.667 -14 36c0 14 5 25.833 15 35.5s21.667 14.5 35 14.5c10 0 19.333 -3 28 -9l408 -271c9.33301 -8.66699 14 -20.667 14 -36c0 -18 -4.66699 -30 -14 -36l-408 -271
c-8.66699 -6 -18 -9 -28 -9c-13.333 0 -25 4.83301 -35 14.5s-15 21.5 -15 35.5z" />
    <glyph glyph-name="question" unicode="?" 
d="M141 520l-0.00292969 9c0 57.333 21.5 102.5 64.5 135.5s93.167 49.5 150.5 49.5c54.667 0 101.667 -15.333 141 -46s59 -74.334 59 -131.001c-0.666992 -30 -8.66699 -60.667 -24 -92s-33 -57.666 -53 -78.999c-4.66699 -5.33301 -14 -14 -28 -26s-24 -22 -30 -30
c-5.33301 -6.66699 -8 -13 -8 -19c0 -13.333 -5 -25 -15 -35s-21.667 -15 -35 -15s-25 4.83301 -35 14.5s-15 21.5 -15 35.5c0 17.333 3.5 33.5 10.5 48.5s14.333 26.667 22 35s18.334 18.833 32.001 31.5s23.167 22 28.5 28c12 12 23.333 28.333 34 49s16 38.667 16 54
c0 38.667 -26.333 64 -79 76c-3.33301 0 -8.33301 0.5 -15 1.5s-11.667 1.5 -15 1.5c-70.667 -10.667 -106 -39 -106 -85v-5v-3c0 -14 -4.83301 -25.833 -14.5 -35.5s-21.5 -14.5 -35.5 -14.5c-13.333 0 -24.666 4.66699 -33.999 14s-14.666 20.333 -15.999 33zM289.997 -17
v46c0 13.333 5 25 15 35s21.667 15 35 15h46c13.333 0 25 -5 35 -15s15 -21.667 15 -35v-46c0 -13.333 -5 -25 -15 -35s-21.667 -15 -35 -15h-46c-13.333 0 -25 5 -35 15s-15 21.667 -15 35z" />
    <glyph glyph-name="at" unicode="@" 
d="M113 194c0 151.333 47.001 227 141.001 227h4c29.333 0 57.666 -9 84.999 -27c10 16.667 24.333 25 43 25c13.333 0 25 -5 35 -15s15 -21.667 15 -35v-243c1.33301 -30 10 -45 26 -45c11.333 0.666992 20.666 4.5 27.999 11.5s12.5 17 15.5 30s5 25.167 6 36.5
s1.5 26 1.5 44v26v114c0 31.333 -0.833008 58.333 -2.5 81s-5.33398 47 -11.001 73s-13.667 47.167 -24 63.5s-25 30 -44 41s-41.833 16.5 -68.5 16.5h-12c-37.333 0 -68.333 -6.66699 -93 -20s-39 -34.333 -43 -63c-1.33301 -11.333 -6.66602 -21.166 -15.999 -29.499
s-20.333 -12.5 -33 -12.5c-14 0 -25.833 4.83301 -35.5 14.5s-14.5 21.5 -14.5 35.5v7c8 52 33.167 92.667 75.5 122s95.5 44.666 159.5 45.999h9c39.333 0 74 -6.66699 104 -20s54.333 -31 73 -53s33.834 -49.5 45.501 -82.5s19.667 -67 24 -102s6.5 -74.167 6.5 -117.5
v-114c0 -56 -3.5 -99.167 -10.5 -129.5s-22.167 -56.833 -45.5 -79.5c-27.333 -25.333 -60.333 -38 -99 -38c-36.667 0 -65 12.667 -85 38c-28 -26 -63.667 -39 -107 -39h-8c-96.667 3.33301 -145 74.333 -145 213zM213.001 188c0 -16 0.333008 -28.667 1 -38
s2.5 -20 5.5 -32s8 -21 15 -27s16.167 -9.33301 27.5 -10h6c17.333 0 31 4.83301 41 14.5s19 23.167 27 40.5v127c-8 15.333 -19.333 28.833 -34 40.5s-30.667 17.5 -48 17.5c-27.333 0 -41 -36.667 -41 -110v-17v-6z" />
    <glyph glyph-name="A" unicode="A" 
d="M119 40l-0.00195312 13l161 617c2.66699 10 8.66699 18.667 18 26s19.666 11 30.999 11h68c10.667 0 20.334 -3 29.001 -9s14.334 -13.333 17.001 -22l165 -636c0 -13.333 -5.16699 -25 -15.5 -35s-22.166 -15 -35.499 -15c-11.333 0 -21.5 3.66699 -30.5 11
s-14.833 16 -17.5 26l-45 172h-203l-44 -172c-2.66699 -10 -8.5 -18.667 -17.5 -26s-19.167 -11 -30.5 -11c-13.333 0 -25 4.83301 -35 14.5s-15 21.5 -15 35.5zM286.998 299h152l-76 292z" />
    <glyph glyph-name="B" unicode="B" 
d="M113 51v600c0 14 4.83301 25.833 14.5 35.5s21.5 14.5 35.5 14.5h171c76.667 0 132.667 -9.66699 168 -29c30 -17.333 53.5 -41.333 70.5 -72s25.5 -63.334 25.5 -98.001c0 -55.333 -20 -100.666 -60 -135.999c48.667 -38.667 73.667 -90.334 75 -155.001
c0 -67.333 -25.667 -120.666 -77 -159.999c-42.667 -33.333 -110 -50 -202 -50h-171c-13.333 0 -25 4.83301 -35 14.5s-15 21.5 -15 35.5zM213 101h121.001c119.333 0 179 36.667 179 110c-0.666992 36 -14.834 62.5 -42.501 79.5s-63.5 25.5 -107.5 25.5h-150v-215z
M213.001 416h150c90.667 0 136 29.333 136 88v7c-3.33301 36 -19 60 -47 72s-67.333 18 -118 18h-121v-185z" />
    <glyph glyph-name="C" unicode="C" 
d="M161 342l0.00292969 11.0029c0 48.667 3.66699 93.334 11 134.001s19.333 78.5 36 113.5s40.5 62.667 71.5 83s67.833 31.166 110.5 32.499c44 0 82.167 -12 114.5 -36s52.833 -55 61.5 -93v-10c0 -13.333 -4.83301 -25 -14.5 -35s-21.167 -15 -34.5 -15
c-14 0 -24.667 4.33301 -32 13s-13.833 19.5 -19.5 32.5s-11.834 22.167 -18.501 27.5c-14 10.667 -32.333 16 -55 16c-87.333 -5.33301 -131 -90 -131 -254v-18c0.666992 -26.667 1.83398 -50.334 3.50098 -71.001s5.33398 -43.334 11.001 -68.001s13.167 -45 22.5 -61
s22.333 -29.5 39 -40.5s36.667 -16.5 60 -16.5c18.667 0 34.5 4.16699 47.5 12.5s20.833 20.166 23.5 35.499c2 11.333 7.66699 21 17 29s20 12 32 12c13.333 0 24.833 -5 34.5 -15s14.5 -21.667 14.5 -35v-9c-6.66699 -38 -25.5 -69.167 -56.5 -93.5
s-68.5 -36.5 -112.5 -36.5c-44.667 0 -82.834 9.83301 -114.501 29.5s-55.834 47 -72.501 82s-28.834 72.167 -36.501 111.5s-11.834 83.333 -12.501 132z" />
    <glyph glyph-name="D" unicode="D" 
d="M164 51l0.000976562 600c0 13.333 4.83301 25 14.5 35s21.5 15 35.5 15c70 0 129 -13.333 177 -40s90 -64 126 -112c46.667 -63.333 70 -136 70 -218c0 -85.333 -24.333 -157 -73 -215s-111.334 -94 -188.001 -108c-24.667 -4.66699 -62 -7 -112 -7
c-13.333 0 -25 5 -35 15s-15 21.667 -15 35zM264.001 103c69.333 6 123.833 28.168 163.5 66.501s59.5 92.166 59.5 161.499c0 94.667 -39.667 170.667 -119 228c-29.333 21.333 -64 34.333 -104 39v-495z" />
    <glyph glyph-name="E" unicode="E" 
d="M159 51v600c0 14 4.83301 25.833 14.5 35.5s21.5 14.5 35.5 14.5h342c14 0 25.833 -4.83301 35.5 -14.5s14.5 -21.5 14.5 -35.5s-5 -25.833 -15 -35.5s-21.667 -14.5 -35 -14.5h-292v-185h244c13.333 0 25 -5 35 -15s15 -21.667 15 -35s-4.83301 -25 -14.5 -35
s-21.5 -15 -35.5 -15h-244v-215h292c14 0 25.833 -4.83301 35.5 -14.5s14.5 -21.5 14.5 -35.5s-5 -25.833 -15 -35.5s-21.667 -14.5 -35 -14.5h-342c-13.333 0 -25 4.83301 -35 14.5s-15 21.5 -15 35.5z" />
    <glyph glyph-name="F" unicode="F" 
d="M210 40v611c0 13.333 4.83301 25 14.5 35s21.5 15 35.5 15h274c14 0 25.833 -4.83301 35.5 -14.5s14.5 -21.5 14.5 -35.5s-5 -25.833 -15 -35.5s-21.667 -14.5 -35 -14.5h-224v-185h179c13.333 0 25 -5 35 -15s15 -21.667 15 -35s-5 -25 -15 -35s-21.667 -15 -35 -15
h-179v-276c0 -13.333 -5 -25 -15 -35s-21.667 -15 -35 -15s-25 5 -35 15s-15 21.667 -15 35z" />
    <glyph glyph-name="G" unicode="G" 
d="M121 353c0 59.333 7.83301 114.833 23.5 166.5s38.167 92.167 67.5 121.5c48.667 50 106.334 75 173.001 75c15.333 0 29.333 -1.33301 42 -4c60 -8 109.333 -35.667 148 -83c8 -8.66699 12 -19.334 12 -32.001c0 -13.333 -5 -25 -15 -35s-21.667 -15 -35 -15
c-14.667 0 -27.334 6 -38.001 18c-28 32 -65 48 -111 48c-41.333 0 -76 -14.333 -104 -43c-41.333 -41.333 -62 -110.333 -62 -207c0 -64.667 9.33301 -123 28 -175c24 -67.333 73.667 -101 149 -101c30.667 0 63 6 97 18v174h-113c-14 0 -25.833 4.83301 -35.5 14.5
s-14.5 21.5 -14.5 35.5s5 25.833 15 35.5s21.667 14.5 35 14.5h163c13.333 0 25 -5 35 -15s15 -21.667 15 -35v-255c0 -33.333 -35 -58.666 -105 -75.999c-33.333 -9.33301 -64.333 -14 -93 -14c-77.333 0 -139.333 24.333 -186 73c-29.333 30 -51.833 71.667 -67.5 125
s-23.5 110.333 -23.5 171z" />
    <glyph glyph-name="H" unicode="H" 
d="M141 40v623c0 13.333 5 25 15 35s21.667 15 35 15s25 -4.83301 35 -14.5s15 -21.5 15 -35.5v-253h243v253c0 13.333 5 25 15 35s21.667 15 35 15s25 -4.83301 35 -14.5s15 -21.5 15 -35.5v-623c0 -14 -5 -25.833 -15 -35.5s-21.667 -14.5 -35 -14.5s-25 5 -35 15
s-15 21.667 -15 35v270h-243v-270c0 -14 -5 -25.833 -15 -35.5s-21.667 -14.5 -35 -14.5s-25 5 -35 15s-15 21.667 -15 35z" />
    <glyph glyph-name="I" unicode="I" 
d="M170 51c0 13.333 4.83301 25 14.5 35s21.5 15 35.5 15h93v500h-73c-13.333 0 -25 5 -35 15s-15 21.667 -15 35s4.83301 25 14.5 35s21.5 15 35.5 15h246c14 0 25.833 -5 35.5 -15s14.5 -21.667 14.5 -35s-5 -25 -15 -35s-21.667 -15 -35 -15h-73v-500h93
c14 0 25.833 -5 35.5 -15s14.5 -21.667 14.5 -35s-5 -25 -15 -35s-21.667 -15 -35 -15h-286c-13.333 0 -25 5 -35 15s-15 21.667 -15 35z" />
    <glyph glyph-name="J" unicode="J" 
d="M130 165c0 12.667 1.33203 24.667 3.99902 36c6 26.667 22.333 40 49 40c14 0 25.667 -4.83301 35 -14.5s14 -21.5 14 -35.5v-9c-1.33301 -8 -2 -13.333 -2 -16c0 -24 8.83301 -43.333 26.5 -58s37.834 -22 60.501 -22c20 0 37.167 6.83301 51.5 20.5
s21.5 33.5 21.5 59.5v497c0 13.333 5 25 15 35s21.667 15 35 15s25 -5 35 -15s15 -21.667 15 -35v-489c0 -1.33301 0.166992 -3.5 0.5 -6.5s0.5 -5.16699 0.5 -6.5c0 -46.667 -17.667 -87.834 -53 -123.501s-77 -53.5 -125 -53.5c-30 0 -59.333 7.66699 -88 23
c-27.333 15.333 -50 36.833 -68 64.5s-27 58.834 -27 93.501z" />
    <glyph glyph-name="K" unicode="K" 
d="M127 40v623c0 13.333 5 25 15 35s21.667 15 35 15s25 -5 35 -15s15 -21.667 15 -35v-247l277 282c10 10 22 15 36 15c13.333 0 25 -5 35 -15s15 -21.667 15 -35s-5 -25 -15 -35l-257 -263l280 -290c10 -11.333 15 -23 15 -35c0 -13.333 -5 -25 -15 -35
s-21.667 -15 -35 -15c-14 0 -26 5 -36 15l-300 310v-275c0 -13.333 -5 -25 -15 -35s-21.667 -15 -35 -15s-25 5 -35 15s-15 21.667 -15 35z" />
    <glyph glyph-name="L" unicode="L" 
d="M141 51v612c0 13.333 5 25 15 35s21.667 15 35 15s25 -4.83301 35 -14.5s15 -21.5 15 -35.5v-562h322c14 0 25.833 -5 35.5 -15s14.5 -21.667 14.5 -35s-5 -25 -15 -35s-21.667 -15 -35 -15h-372c-13.333 0 -25 5 -35 15s-15 21.667 -15 35z" />
    <glyph glyph-name="M" unicode="M" 
d="M113 40v623c0 14 5 25.833 15 35.5s21.667 14.5 35 14.5h77c11.333 0 21.333 -3.5 30 -10.5s14.667 -15.5 18 -25.5l75 -247l75 247c2.66699 10 8.5 18.5 17.5 25.5s19.167 10.5 30.5 10.5h77c13.333 0 25 -5 35 -15s15 -21.667 15 -35v-623c0 -13.333 -5 -25 -15 -35
s-21.667 -15 -35 -15s-25 4.83301 -35 14.5s-15 21.5 -15 35.5v539l-102 -336c-8.66699 -24 -24.667 -36 -48 -36c-10.667 0 -20.5 3.5 -29.5 10.5s-15.167 15.5 -18.5 25.5l-102 336v-539c0 -13.333 -5 -25 -15 -35s-21.667 -15 -35 -15s-25 4.83301 -35 14.5
s-15 21.5 -15 35.5z" />
    <glyph glyph-name="N" unicode="N" 
d="M127 40v623c0 13.333 5 25 15 35s21.667 15 35 15h37c20 0 35 -9.66699 45 -29l240 -502v481c0 14 5 25.833 15 35.5s21.667 14.5 35 14.5s25 -5 35 -15s15 -21.667 15 -35v-623c0 -13.333 -5 -25 -15 -35s-21.667 -15 -35 -15h-38c-20.667 0 -35.667 9.33301 -45 28
l-239 502v-480c0 -13.333 -5 -25 -15 -35s-21.667 -15 -35 -15s-25 5 -35 15s-15 21.667 -15 35z" />
    <glyph glyph-name="O" unicode="O" 
d="M116 354l0.000976562 8c0 66 11.333 127.167 34 183.5s54 100.833 94 133.5c33.333 28 73 42 119 42c50.667 0 95.334 -18.333 134.001 -55s67.167 -82.5 85.5 -137.5s27.5 -113.167 27.5 -174.5c-0.666992 -59.333 -10 -116.333 -28 -171s-46.333 -101 -85 -139
s-83.334 -57 -134.001 -57s-95.334 19 -134.001 57s-67.167 84.333 -85.5 139s-27.5 111.667 -27.5 171zM216.001 354c0 -38 4.83301 -76.501 14.5 -115.501s26.167 -74 49.5 -105s51 -46.5 83 -46.5c24 0 45.833 8.83301 65.5 26.5s35.167 40.334 46.5 68.001
s20 56.5 26 86.5s9 58.667 9 86c0 40.667 -4.83301 80.5 -14.5 119.5s-26 73.333 -49 103s-50.833 44.5 -83.5 44.5c-33.333 0 -61.333 -16 -84 -48h-2c-40.667 -52 -61 -121.333 -61 -208v-11z" />
    <glyph glyph-name="P" unicode="P" 
d="M141 40l-0.000976562 611c0 13.333 4.83301 25 14.5 35s21.5 15 35.5 15h172c74 0 134.167 -17.667 180.5 -53s69.5 -86.333 69.5 -153v-11c-2 -45.333 -15 -83.333 -39 -114c-41.333 -55.333 -111.666 -83 -210.999 -83h-122v-247c0 -14 -5 -25.833 -15 -35.5
s-21.667 -14.5 -35 -14.5s-25 5 -35 15s-15 21.667 -15 35zM240.999 387h121.999c96.667 0 146.667 33.667 150 101v6c0 45.333 -18.667 77 -56 95c-19.333 8 -50.666 12 -93.999 12h-122v-214z" />
    <glyph glyph-name="Q" unicode="Q" 
d="M114 379c0 80 10.332 143 30.999 189c17.333 40.667 43.166 75 77.499 103s74.833 43 121.5 45h7h4c31.333 0 61 -8 89 -24c44.667 -24 79.334 -65.833 104.001 -125.5s37 -124.834 37 -195.501c0 -84.667 -16 -156.667 -48 -216l65 -84
c7.33301 -9.33301 11 -19.666 11 -30.999c0 -13.333 -5.16699 -25 -15.5 -35s-22.166 -15 -35.499 -15c-16.667 0 -28.667 5 -36 15l-54 70c-37.333 -28.667 -77 -43 -119 -43c-44 0 -85.333 14.5 -124 43.5s-66.667 64.167 -84 105.5c-20.667 51.333 -31 117.333 -31 198z
M217.999 401c0 -29.333 0.500977 -54 1.50098 -74s3.33301 -41.833 7 -65.5s9 -43.167 16 -58.5s17 -29.166 30 -41.499s28.5 -20.833 46.5 -25.5c10 -2.66699 20.333 -4 31 -4c22 0 42.667 7 62 21l-97 125c-7.33301 9.33301 -11 19.666 -11 30.999c0 13.333 5 25 15 35
s21.667 15 35 15c16.667 0 29 -5 37 -15l79 -102c13.333 40 20 83.333 20 130c0 66 -12.333 123.167 -37 171.5s-59.334 72.5 -104.001 72.5h-3c-38 -0.666992 -68 -17 -90 -49s-34.667 -69.667 -38 -113v-53z" />
    <glyph glyph-name="R" unicode="R" 
d="M153 40l-0.000976562 611c0 14 4.83301 25.833 14.5 35.5s21.5 14.5 35.5 14.5h164c34 -2.66699 66.833 -10 98.5 -22s59.334 -30 83.001 -54s35.5 -51.333 35.5 -82c0 -59.333 -11 -110.5 -33 -153.5s-56.333 -73.167 -103 -90.5l136 -234c4 -6.66699 6 -15 6 -25
c0 -13.333 -5 -25 -15 -35s-21.667 -15 -35 -15c-16 0 -28.333 4.66699 -37 14l-164 283h-86v-247c0 -13.333 -5 -25 -15 -35s-21.667 -15 -35 -15s-25 4.83301 -35 14.5s-15 21.5 -15 35.5zM252.999 387h109.999c36.667 0 64 7.66699 82 23
c16.667 14 27.334 31.667 32.001 53s7 48 7 80c0 10 -10.333 20 -31 30c-29.333 16.667 -60 26 -92 28h-108v-214z" />
    <glyph glyph-name="S" unicode="S" 
d="M147 153l0.00195312 6.99805c0 13.333 5 25 15 35s21.667 15 35 15c12.667 0 23.5 -4.16699 32.5 -12.5s14.833 -18.5 17.5 -30.5c3.33301 -26 15.333 -46 36 -60s45.334 -21 74.001 -21c34.667 0 64 9 88 27c22.667 18.667 34 44 34 76c0 18.667 -4.5 35.167 -13.5 49.5
s-18.167 24.666 -27.5 30.999s-23 14.166 -41 23.499l-52.5 25c-25.667 12 -44.834 21.333 -57.501 28s-29.167 17 -49.5 31s-35.5 27.667 -45.5 41s-19 30.333 -27 51s-12 43.334 -12 68.001c0 52 20.5 94.5 61.5 127.5s90.167 50.167 147.5 51.5h6
c51.333 0 94.5 -12.333 129.5 -37s58.5 -58 70.5 -100c1.33301 -5.33301 2 -9.66602 2 -12.999c0 -13.333 -4.83301 -25 -14.5 -35s-21.5 -15 -35.5 -15s-25.167 4.5 -33.5 13.5s-15.666 20.5 -21.999 34.5s-12.833 23.667 -19.5 29c-18 15.333 -45 23 -81 23
c-29.333 -2 -55.166 -9.83301 -77.499 -23.5s-33.5 -32.167 -33.5 -55.5c0 -18 4.33301 -33.833 13 -47.5s17 -23.167 25 -28.5s20.667 -13 38 -23c10 -5.33301 28 -13.833 54 -25.5s45.667 -20.834 59 -27.501s30.166 -17.167 50.499 -31.5s35.666 -28.333 45.999 -42
s19.666 -31.167 27.999 -52.5s12.5 -44.666 12.5 -69.999c0 -53.333 -17.333 -98.166 -52 -134.499s-79 -58.5 -133 -66.5c-14 -2 -27.333 -3 -40 -3c-52.667 0 -98.834 15.833 -138.501 47.5s-62.5 71.834 -68.5 120.501z" />
    <glyph glyph-name="T" unicode="T" 
d="M113 651c0 14 4.83301 25.833 14.5 35.5s21.5 14.5 35.5 14.5h400c14 0 25.833 -5 35.5 -15s14.5 -21.667 14.5 -35s-5 -25 -15 -35s-21.667 -15 -35 -15h-150v-561c0 -13.333 -5 -25 -15 -35s-21.667 -15 -35 -15s-25 4.83301 -35 14.5s-15 21.5 -15 35.5v561h-150
c-13.333 0 -25 4.83301 -35 14.5s-15 21.5 -15 35.5z" />
    <glyph glyph-name="U" unicode="U" 
d="M127 211l-0.000976562 452c0 13.333 5 25 15 35s21.667 15 35 15s25 -5 35 -15s15 -21.667 15 -35v-452c0 -47.333 16.333 -82 49 -104c20.667 -13.333 49.667 -20 87 -20c42 0 75.167 11 99.5 33s36.5 52.333 36.5 91v452c0 14 5 25.833 15 35.5s21.667 14.5 35 14.5
s25 -5 35 -15s15 -21.667 15 -35v-452c0 -38 -8.16699 -73.667 -24.5 -107s-39.5 -60 -69.5 -80c-37.333 -24.667 -84.666 -37 -141.999 -37c-58 0 -105.333 12.333 -142 37c-30 20 -53.167 46.667 -69.5 80s-24.5 69 -24.5 107z" />
    <glyph glyph-name="V" unicode="V" 
d="M112 663c0 13.333 5.16992 25 15.5029 35s22.166 15 35.499 15c11.333 0 21.5 -3.66699 30.5 -11s14.833 -16 17.5 -26l152 -571l151 571c8.66699 24.667 25 37 49 37c13.333 0 25.166 -5 35.499 -15s15.5 -21.667 15.5 -35l-169 -636
c-2.66699 -10 -8.5 -18.667 -17.5 -26s-19.167 -11 -30.5 -11h-68c-11.333 0 -21.833 3.66699 -31.5 11s-15.834 16 -18.501 26z" />
    <glyph glyph-name="W" unicode="W" 
d="M113 663l-0.00292969 2.00293c0 13.333 5 24.666 15 33.999s21.667 14 35 14s24.833 -5 34.5 -15s14.834 -21.667 15.501 -35c7.33301 -197.333 19 -352 35 -464l59 204c8.66699 22 24.334 33 47.001 33h17c11.333 0 21.333 -3.5 30 -10.5s14.667 -15.5 18 -25.5l58 -194
c16.667 117.333 28.334 269.666 35.001 456.999c0 13.333 5.16699 25 15.5 35s22.166 15 35.499 15s25 -4.83301 35 -14.5s15 -20.834 15 -33.501v-2c-9.33301 -268 -30.666 -479.333 -63.999 -634c-2 -10 -7.66699 -19 -17 -27s-20 -12 -32 -12
c-17.333 0 -33.5 4.66699 -48.5 14s-24.5 20.333 -28.5 33l-60 200l-61 -211c-7.33301 -24 -23.333 -36 -48 -36h-28c-12.667 0 -23.5 3.83301 -32.5 11.5s-14.833 16.834 -17.5 27.501c-32.667 147.333 -53.667 358.666 -63 633.999z" />
    <glyph glyph-name="X" unicode="X" 
d="M133 40c0 9.33301 2.00098 17.333 6.00098 24l161 296l-155 278c-4 8 -6 16.333 -6 25c0 14 5 25.833 15 35.5s21.667 14.5 35 14.5c14.667 0 26.667 -4.66699 36 -14l138 -247l130 235c13.333 17.333 28 26 44 26c13.333 0 25 -5 35 -15s15 -21.667 15 -35
c0 -8.66699 -2 -17 -6 -25l-155 -278l161 -296c4 -7.33301 6 -15.333 6 -24c0 -13.333 -5 -25 -15 -35s-21.667 -15 -35 -15c-16 0 -28.667 4.66699 -38 14l-142 262l-136 -250c-12.667 -17.333 -27.334 -26 -44.001 -26c-13.333 0 -25 4.83301 -35 14.5s-15 21.5 -15 35.5z
" />
    <glyph glyph-name="Y" unicode="Y" 
d="M136 663c0 14 4.99805 25.834 14.998 35.501s21.667 14.5 35 14.5c18.667 0 33.334 -9 44.001 -27l133 -249l133 249c2.66699 7.33301 8.33398 13.666 17.001 18.999s17.667 8 27 8c13.333 0 25 -5 35 -15s15 -21.667 15 -35c0 -8.66699 -2 -16.667 -6 -24l-171 -320
v-279c0 -13.333 -5 -25 -15 -35s-21.667 -15 -35 -15s-25 4.83301 -35 14.5s-15 21.5 -15 35.5v279l-171 320c-4 7.33301 -6 15.333 -6 24z" />
    <glyph glyph-name="Z" unicode="Z" 
d="M141 51c0 8.66699 2 16.334 6 23.001l271 527h-224c-13.333 0 -25 5 -35 15s-15 21.667 -15 35s4.83301 25 14.5 35s21.5 15 35.5 15h306c13.333 0 25 -5 35 -15s15 -21.667 15 -35c0 -8.66699 -2 -16.334 -6 -23.001l-271 -527h261c14 0 25.833 -4.83301 35.5 -14.5
s14.5 -21.5 14.5 -35.5s-5 -25.833 -15 -35.5s-21.667 -14.5 -35 -14.5h-343c-13.333 0 -25 5 -35 15s-15 21.667 -15 35z" />
    <glyph glyph-name="bracketleft" unicode="[" 
d="M210 37v686c0 13.333 5 25 15 35s21.667 15 35 15h286c13.333 0 25 -5 35 -15s15 -21.667 15 -35s-4.83301 -25 -14.5 -35s-21.5 -15 -35.5 -15h-236v-586h236c13.333 0 25 -5 35 -15s15 -21.667 15 -35s-5 -25 -15 -35s-21.667 -15 -35 -15h-286c-13.333 0 -25 5 -35 15
s-15 21.667 -15 35z" />
    <glyph glyph-name="backslash" unicode="\" 
d="M173 723c0 14 5 25.833 15 35.5s21.667 14.5 35 14.5c9.33301 0 18.5 -3 27.5 -9s15.167 -13.333 18.5 -22l280 -686c2.66699 -5.33301 4 -11.666 4 -18.999c0 -13.333 -5 -25 -15 -35s-21.667 -15 -35 -15c-22 0 -37.333 10.333 -46 31l-280 686
c-2.66699 5.33301 -4 11.666 -4 18.999z" />
    <glyph glyph-name="bracketright" unicode="]" 
d="M130 37c0 13.333 5 25 15 35s21.667 15 35 15h236v586h-236c-14 0 -25.833 5 -35.5 15s-14.5 21.667 -14.5 35s5 25 15 35s21.667 15 35 15h286c13.333 0 25 -5 35 -15s15 -21.667 15 -35v-686c0 -13.333 -5 -25 -15 -35s-21.667 -15 -35 -15h-286
c-13.333 0 -25 5 -35 15s-15 21.667 -15 35z" />
    <glyph glyph-name="asciicircum" unicode="^" 
d="M113 417c0 10 2.66699 19.333 8 28l205 308c9.33301 9.33301 21.333 14 36 14c18 0 30.333 -4.66699 37 -14l205 -308c6 -8 9 -17.333 9 -28c0 -13.333 -5 -25 -15 -35s-21.667 -15 -35 -15c-14 0 -26 5 -36 15l-165 174l-164 -174c-9.33301 -10 -21 -15 -35 -15
c-13.333 0 -25 4.83301 -35 14.5s-15 21.5 -15 35.5z" />
    <glyph glyph-name="underscore" unicode="_" 
d="M113 -157c0 14 5 25.833 15 35.5s21.667 14.5 35 14.5h400c13.333 0 25 -5 35 -15s15 -21.667 15 -35v-29c0 -13.333 -5 -25 -15 -35s-21.667 -15 -35 -15h-400c-13.333 0 -25 4.83301 -35 14.5s-15 21.5 -15 35.5v29z" />
    <glyph glyph-name="grave" unicode="`" 
d="M259 720c0 14 5 25.833 15 35.5s21.667 14.5 35 14.5c18 0 30 -4.66699 36 -14l60 -95c5.33301 -8.66699 8 -17.667 8 -27c0 -13.333 -5 -25 -15 -35s-21.667 -15 -35 -15c-14.667 0 -27 5 -37 15l-60 94c-4.66699 7.33301 -7 16.333 -7 27z" />
    <glyph glyph-name="a" unicode="a" 
d="M127 154c0 28 4.33105 52.5 12.998 73.5s21.834 38 39.501 51s36.334 23.667 56.001 32s44.167 14.5 73.5 18.5s56 6.66699 80 8s53 2 87 2c-4 39.333 -14 66.333 -30 81c-16.667 16 -44.334 24 -83.001 24c-41.333 0 -77.666 -12.667 -108.999 -38
c-8.66699 -6.66699 -19 -10 -31 -10c-14 0 -25.833 4.83301 -35.5 14.5s-14.5 21.5 -14.5 35.5c0 20 6.33301 33 19 39c50.667 39.333 107.667 59 171 59c64.667 0 115 -16.667 151 -50c41.333 -39.333 62 -88.333 62 -147v-310c0 -13.333 -5 -25 -15 -35
s-21.667 -15 -35 -15s-25 4.83301 -35 14.5s-15 21.5 -15 35.5v8c-50 -40.667 -103.333 -61 -160 -61h-14c-45.333 4 -85.833 21.5 -121.5 52.5s-53.5 70.167 -53.5 117.5zM226.998 154c0 -20 8.83301 -36.333 26.5 -49s36.167 -19.667 55.5 -21h8
c58.667 0 111.667 38.667 159 116v40c-29.333 1.33301 -52.333 2 -69 2c-120 0 -180 -29.333 -180 -88z" />
    <glyph glyph-name="b" unicode="b" 
d="M124 37v685.998c0 13.333 5 25 15 35s21.667 15 35 15s25 -4.83301 35 -14.5s15 -21.5 15 -35.5v-238c45.333 36 94.333 54 147 54c18 0 38.333 -2.66699 61 -8c55.333 -13.333 99 -41.333 131 -84s48.667 -96 50 -160c0 -56.667 -7.83301 -107.167 -23.5 -151.5
s-41 -80.666 -76 -108.999s-77.833 -42.5 -128.5 -42.5c-12 0 -21 0.333008 -27 1c-48 4.66699 -92.667 23.334 -134 56.001v-4c0 -14 -5 -25.833 -15 -35.5s-21.667 -14.5 -35 -14.5s-25 5 -35 15s-15 21.667 -15 35zM224 200.998
c13.333 -32 34.3311 -59.668 62.998 -83.001s59.334 -35 92.001 -35c24 0 47.667 7.33301 71 22c42 29.333 63 89.333 63 180c-1.33301 40.667 -14.166 77 -38.499 109s-54.833 48 -91.5 48c-17.333 0 -36.333 -4.66699 -57 -14
c-43.333 -19.333 -77.333 -53.666 -102 -102.999v-124z" />
    <glyph glyph-name="c" unicode="c" 
d="M167 274c0 80 17.668 144.001 53.001 192.001s89 72 161 72c14 0 29 -1 45 -3c32.667 -3.33301 61.334 -14.333 86.001 -33s40.667 -43 48 -73v-12c0 -14 -4.66699 -25.833 -14 -35.5s-21 -14.5 -35 -14.5c-12 0 -22.333 3.66699 -31 11s-14.334 16.666 -17.001 27.999
c-8.66699 21.333 -33 32 -73 32c-22.667 0 -43.667 -4 -63 -12c-40 -19.333 -60 -70 -60 -152c0 -128 36.333 -192 109 -192c12 0 23.333 1.33301 34 4c32.667 7.33301 52 24.333 58 51c9.33301 26 25.666 39 48.999 39c13.333 0 24.833 -5 34.5 -15s14.5 -21.667 14.5 -35
v-12c-9.33301 -38 -31.333 -69.5 -66 -94.5s-74 -37.5 -118 -37.5c-34 0 -67.333 8.33301 -100 25c-76.667 43.333 -115 132.333 -115 267z" />
    <glyph glyph-name="d" unicode="d" 
d="M113 269c0 68 15.833 124.833 47.5 170.5s75.834 76.167 132.501 91.5c16.667 5.33301 35.667 8 57 8c53.333 0 103.666 -18 150.999 -54v238c0 13.333 5 25 15 35s21.667 15 35 15s25 -4.83301 35 -14.5s15 -21.5 15 -35.5v-687c0 -14 -4.83301 -25.667 -14.5 -35
s-21.5 -14 -35.5 -14c-13.333 0 -24.833 4.83301 -34.5 14.5s-14.834 21.167 -15.501 34.5c-44.667 -34 -95 -51 -151 -51c-18.667 0 -37.667 2 -57 6c-59.333 14 -104.166 45.333 -134.499 94s-45.5 110 -45.5 184zM213 269c0 -50.667 11.1689 -94.666 33.502 -131.999
s53.833 -56 94.5 -56c19.333 0 39 4.33301 59 13c51.333 22 85 57.333 101 106v128c-14.667 30 -35.834 56.167 -63.501 78.5s-57.167 33.5 -88.5 33.5c-24.667 0 -49.334 -8.33301 -74.001 -25c-41.333 -26.667 -62 -75.334 -62 -146.001z" />
    <glyph glyph-name="e" unicode="e" 
d="M127 274c0 76.667 21 140.502 63 191.502s99.333 77.167 172 78.5h6c74 0 131 -23.833 171 -71.5s60 -109.834 60 -186.501c0 -13.333 -5 -25 -15 -35s-21.667 -15 -35 -15h-320c4.66699 -47.333 19.334 -84.5 44.001 -111.5s59.667 -40.5 105 -40.5
c14.667 0 26 0.666992 34 2c22.667 5.33301 39.334 13.333 50.001 24c9.33301 9.33301 20.666 14 33.999 14c14 0 26 -4.83301 36 -14.5s15 -21.5 15 -35.5c0 -30.667 -15.833 -53.167 -47.5 -67.5s-69.834 -21.5 -114.501 -21.5c-36 0 -67.667 4.33301 -95 13
c-52.667 18 -93 51.167 -121 99.5s-42 107.166 -42 176.499zM234 336.002l256.999 0.000976562c-7.33301 37.333 -20.166 64.666 -38.499 81.999s-47.833 26 -88.5 26c-66.667 0 -110 -36 -130 -108z" />
    <glyph glyph-name="f" unicode="f" 
d="M147 483c0 13.333 5 25 15 35s21.667 15 35 15h110v10c0 151.333 73 227 219 227c13.333 0 25 -5 35 -15s15 -21.667 15 -35s-5 -25 -15 -35s-21.667 -15 -35 -15c-28.667 0 -53.5 -5 -74.5 -15s-34.5 -25.333 -40.5 -46c-2.66699 -8.66699 -4 -30.667 -4 -66v-10h122
c13.333 0 25 -5 35 -15s15 -21.667 15 -35s-5 -25 -15 -35s-21.667 -15 -35 -15h-122l6 -396c0 -13.333 -5 -25 -15 -35s-21.667 -15 -35 -15s-25 4.83301 -35 14.5s-15 21.5 -15 35.5l-6 396h-110c-14 0 -25.833 5 -35.5 15s-14.5 21.667 -14.5 35z" />
    <glyph glyph-name="g" unicode="g" 
d="M116 269c0 79.333 19.6689 144.166 59.002 194.499s95.333 75.5 168 75.5c10.667 0 18.667 -0.333008 24 -1c45.333 -4 85.333 -20 120 -48c0.666992 12.667 6 23.5 16 32.5s21.333 13.5 34 13.5c13.333 0 25 -5 35 -15s15 -21.667 15 -35v-425c2 -15.333 3 -30 3 -44
c0 -63.333 -20.667 -113.666 -62 -150.999s-96.666 -56 -165.999 -56c-54.667 0 -98.834 6.5 -132.501 19.5s-57.834 36.5 -72.501 70.5c-2.66699 5.33301 -4 12 -4 20c0 14 5 25.833 15 35.5s21.667 14.5 35 14.5c14.667 0 27.834 -7.66699 39.501 -23
s20.5 -24.333 26.5 -27c13.333 -6.66699 39.666 -10 78.999 -10h14c61.333 0 99.666 17.667 114.999 53c6.66699 14.667 10 36 10 64v22v25c-43.333 -36.667 -94.333 -55 -153 -55c-67.333 0 -120.5 23.833 -159.5 71.5s-58.5 107.167 -58.5 178.5zM216.002 269
c0 -42.667 10 -78.332 30 -106.999s49.333 -43 88 -43c19.333 0 37 3.16699 53 9.5s30.333 16 43 29s22.667 24.667 30 35s16.333 24.166 27 41.499v83c-28 77.333 -70.667 118 -128 122h-13c-44.667 0 -77.5 -15.5 -98.5 -46.5s-31.5 -72.167 -31.5 -123.5z" />
    <glyph glyph-name="h" unicode="h" 
d="M156 37l-0.00292969 686c0 14 5 25.833 15 35.5s21.667 14.5 35 14.5s25 -5 35 -15s15 -21.667 15 -35v-234c40 33.333 87 50 141 50c40.667 0 75.334 -11.833 104.001 -35.5s48.334 -53.834 59.001 -90.501c6.66699 -24.667 10 -67 10 -127v-249
c0 -13.333 -5 -25 -15 -35s-21.667 -15 -35 -15s-25 5 -35 15s-15 21.667 -15 35v249v12c0 18 -0.166992 32.333 -0.5 43s-1.83301 23 -4.5 37s-6.5 24.833 -11.5 32.5s-12.167 14.334 -21.5 20.001s-21 8.5 -35 8.5c-33.333 0 -60.666 -10 -81.999 -30s-41 -47 -59 -81
v-291c0 -13.333 -5 -25 -15 -35s-21.667 -15 -35 -15s-25 4.83301 -35 14.5s-15 21.5 -15 35.5z" />
    <glyph glyph-name="i" unicode="i" 
d="M181 474c0 13.333 4.83301 25 14.5 35s21.5 15 35.5 15h180c14 0 25.833 -4.83301 35.5 -14.5s14.5 -21.5 14.5 -35.5v-437c0 -14 -5 -25.833 -15 -35.5s-21.667 -14.5 -35 -14.5s-25 5 -35 15s-15 21.667 -15 35v387h-130c-13.333 0 -25 5 -35 15s-15 21.667 -15 35z
M319 677v46c0 14 5 25.833 15 35.5s21.667 14.5 35 14.5h45c13.333 0 25 -4.83301 35 -14.5s15 -21.5 15 -35.5v-46c0 -14 -5 -25.833 -15 -35.5s-21.667 -14.5 -35 -14.5h-45c-13.333 0 -25 4.83301 -35 14.5s-15 21.5 -15 35.5z" />
    <glyph glyph-name="j" unicode="j" 
d="M153 -129c0 14 4.83301 25.833 14.5 35.5s21.5 14.5 35.5 14.5h5c10.667 -1.33301 26 -2 46 -2l47 2c8 0 16.5 5 25.5 15s15.5 19.333 19.5 28c6.66699 14 10 45 10 93v367h-96c-13.333 0 -25 5 -35 15s-15 21.667 -15 35s4.83301 25 14.5 35s21.5 15 35.5 15h146
c14 0 25.833 -5 35.5 -15s14.5 -21.667 14.5 -35v-417c0 -63.333 -6.33301 -108.666 -19 -135.999c-12 -24.667 -29.5 -46.834 -52.5 -66.501s-47.5 -30.5 -73.5 -32.5c-34.667 -3.33301 -57.667 -5 -69 -5c-59.333 0 -89 18 -89 54zM319 677v46c0 14 5 25.833 15 35.5
s21.667 14.5 35 14.5h45c13.333 0 25 -4.83301 35 -14.5s15 -21.5 15 -35.5v-46c0 -14 -5 -25.833 -15 -35.5s-21.667 -14.5 -35 -14.5h-45c-13.333 0 -25 4.83301 -35 14.5s-15 21.5 -15 35.5z" />
    <glyph glyph-name="k" unicode="k" 
d="M173 37v686c0 14 5 25.833 15 35.5s21.667 14.5 35 14.5s25 -5 35 -15s15 -21.667 15 -35v-379h3l196 177c10 10 21.333 15 34 15c13.333 0 25 -5 35 -15s15 -21.667 15 -35c0 -14.667 -5.33301 -26.667 -16 -36l-172 -158l206 -221c8.66699 -10 13 -21.333 13 -34
c0 -13.333 -5 -25 -15 -35s-21.667 -15 -35 -15c-15.333 0 -27.333 5 -36 15l-225 242h-3v-207c0 -13.333 -5 -25 -15 -35s-21.667 -15 -35 -15s-25 4.83301 -35 14.5s-15 21.5 -15 35.5z" />
    <glyph glyph-name="l" unicode="l" 
d="M253 228l6.00098 494.999c0 14 5 25.833 15 35.5s21.667 14.5 35 14.5s25 -5 35 -15s15 -21.667 15 -35l-7 -495c0 -40.667 5.16699 -72 15.5 -94s30.5 -35 60.5 -39c9.33301 -1.33301 35.333 -2 78 -2c13.333 0 25 -5 35 -15s15 -21.667 15 -35s-5 -25 -15 -35
s-21.667 -15 -35 -15c-56.667 0 -101 4.5 -133 13.5s-58 27.167 -78 54.5c-16.667 20.667 -27.834 43.834 -33.501 69.501s-8.5 58.167 -8.5 97.5z" />
    <glyph glyph-name="m" unicode="m" 
d="M113 37v449c0 14 5 25.833 15 35.5s21.667 14.5 35 14.5c17.333 0 31 -7.66699 41 -23c24 17.333 50.333 26 79 26c40 0 73 -15.667 99 -47c29.333 31.333 63 47 101 47c37.333 0 68.333 -13.5 93 -40.5s37 -58.5 37 -94.5v-367c0 -13.333 -5 -25 -15 -35
s-21.667 -15 -35 -15s-25 4.83301 -35 14.5s-15 21.5 -15 35.5v359c-1.33301 28.667 -11.333 43 -30 43c-19.333 0 -35.833 -14.5 -49.5 -43.5s-20.5 -55.833 -20.5 -80.5v-278c0 -13.333 -5 -25 -15 -35s-21.667 -15 -35 -15s-25 4.83301 -35 14.5s-15 21.5 -15 35.5v359
c-1.33301 28.667 -11.333 43 -30 43c-19.333 0 -35.333 -14.167 -48 -42.5s-20 -55.5 -22 -81.5v-278c0 -13.333 -5 -25 -15 -35s-21.667 -15 -35 -15s-25 4.83301 -35 14.5s-15 21.5 -15 35.5z" />
    <glyph glyph-name="n" unicode="n" 
d="M127 37l-0.000976562 448.998c0 13.333 5 24.833 15 34.5s21.667 14.5 35 14.5s25 -4.83301 35 -14.5s15 -21.167 15 -34.5v-9c46.667 41.333 101.334 62 164.001 62c72 0 124.667 -22.5 158 -67.5s50 -106.833 50 -185.5v-249c0 -13.333 -5 -25 -15 -35
s-21.667 -15 -35 -15s-25 4.83301 -35 14.5s-15 21.5 -15 35.5v249c0 50.667 -7.5 88.834 -22.5 114.501s-43.5 38.5 -85.5 38.5c-38.667 0 -72 -13.167 -100 -39.5s-49.333 -58.166 -64 -95.499v-267c0 -13.333 -5 -25 -15 -35s-21.667 -15 -35 -15s-25 5 -35 15
s-15 21.667 -15 35z" />
    <glyph glyph-name="o" unicode="o" 
d="M113 263c0 82 22 149.335 66 202.002s105.333 79 184 79c76.667 0 137.5 -26.5 182.5 -79.5s67.5 -120.167 67.5 -201.5c0 -80.667 -22.333 -147.334 -67 -200.001s-105.667 -79 -183 -79c-78 0 -139.167 26.167 -183.5 78.5s-66.5 119.166 -66.5 200.499zM213 263.002
c0 -52.667 12.6709 -95.667 38.0039 -129s62.666 -50 111.999 -50s86.666 16.667 111.999 50s38 76.333 38 129s-12.833 96 -38.5 130s-62.834 51 -111.501 51s-85.834 -17 -111.501 -51s-38.5 -77.333 -38.5 -130z" />
    <glyph glyph-name="p" unicode="p" 
d="M124 -134l0.000976562 619.999c0 13.333 5 25 15 35s21.667 15 35 15s25 -4.83301 35 -14.5s15 -21.5 15 -35.5c43.333 35.333 91.666 53 144.999 53c18 0 38.667 -2.66699 62 -8c60.667 -14 106.167 -44.667 136.5 -92s45.5 -108 45.5 -182
c0 -79.333 -20.667 -144.666 -62 -195.999s-99.333 -77 -174 -77h-17c-50 2.66699 -95.333 20.667 -136 54v-172c0 -14 -4.83301 -25.833 -14.5 -35.5s-21.5 -14.5 -35.5 -14.5s-25.833 5 -35.5 15s-14.5 21.667 -14.5 35zM224.001 206.999
c11.333 -22 22.499 -40.999 33.499 -56.999s26.667 -31 47 -45s42.5 -21 66.5 -21c10 0 22.333 1.66699 37 5c70 18 105 74 105 168c0 53.333 -10.833 97.166 -32.5 131.499s-55.5 51.5 -101.5 51.5c-1.33301 0 -3.33301 -0.166992 -6 -0.5s-5 -0.5 -7 -0.5
c-31.333 -2 -59.166 -14.167 -83.499 -36.5s-43.833 -48.5 -58.5 -78.5v-117z" />
    <glyph glyph-name="q" unicode="q" 
d="M113 257c0 154 60.334 245.333 181.001 274c23.333 5.33301 44 8 62 8c53.333 0 101.666 -17.667 144.999 -53c0 13.333 5 25 15 35s21.667 15 35 15s25 -4.83301 35 -14.5s15 -21.5 15 -35.5v-620c0 -14 -4.83301 -25.833 -14.5 -35.5s-21.5 -14.5 -35.5 -14.5
s-25.833 5 -35.5 15s-14.5 21.667 -14.5 35v172c-44 -35.333 -94 -53 -150 -53c-18 0 -37 2 -57 6c-57.333 14 -101.833 44.333 -133.5 91s-47.5 105 -47.5 175zM213.001 257c0 -48 11.667 -88.999 35 -122.999s55 -51 95 -51c19.333 0 38.333 3.66699 57 11
c45.333 20 79 56.333 101 109v119c-14.667 31.333 -35.667 58.666 -63 81.999s-57.333 35 -90 35c-26 0 -50.333 -7.33301 -73 -22c-41.333 -24 -62 -77.333 -62 -160z" />
    <glyph glyph-name="r" unicode="r" 
d="M204 37l0.000976562 448.999c0 13.333 5 24.833 15 34.5s21.667 14.5 35 14.5c14 0 25.833 -4.66699 35.5 -14s14.5 -21 14.5 -35c39.333 35.333 87.666 53 144.999 53c43.333 0 78.5 -13.5 105.5 -40.5s40.833 -59.833 41.5 -98.5c0 -13.333 -5 -25 -15 -35
s-21.667 -15 -35 -15s-25 4.83301 -35 14.5s-15 21.5 -15 35.5c-1.33301 19.333 -11.666 31.333 -30.999 36c-2 0 -4.66699 0.5 -8 1.5s-6 1.5 -8 1.5s-5.33301 -0.5 -10 -1.5s-8.33398 -1.5 -11.001 -1.5c-38 -5.33301 -68.167 -25.666 -90.5 -60.999
s-33.5 -73.333 -33.5 -114v-224c0 -14 -5 -25.833 -15 -35.5s-21.667 -14.5 -35 -14.5s-25 5 -35 15s-15 21.667 -15 35z" />
    <glyph glyph-name="s" unicode="s" 
d="M153 97c0 14 4.99609 25.832 14.9961 35.499s21.667 14.5 35 14.5c14 0 28 -7.83301 42 -23.5s23 -24.5 27 -26.5c18 -8.66699 48.333 -13 91 -13c16 0.666992 29.5 1.83398 40.5 3.50098s23 4.66699 36 9s22.833 10.833 29.5 19.5s10 19.667 10 33
c0 11.333 -4.5 21 -13.5 29s-17.167 13.333 -24.5 16s-18.666 6 -33.999 10c-7.33301 2 -21.166 5.5 -41.499 10.5s-35.166 8.83301 -44.499 11.5s-22.833 7 -40.5 13s-30.834 11.5 -39.501 16.5s-19.167 12.167 -31.5 21.5s-21.5 19 -27.5 29s-11.333 22.167 -16 36.5
s-7 29.833 -7 46.5c0 52.667 19.333 91.667 58 117s87.334 38 146.001 38h31c38.667 -2 73.334 -12.333 104.001 -31s50.334 -44.334 59.001 -77.001c1.33301 -6.66699 2 -11 2 -13c0 -13.333 -5 -25 -15 -35s-21.667 -15 -35 -15c-12 0 -22.5 3.5 -31.5 10.5
s-14.833 15.833 -17.5 26.5c-4.66699 20 -28.334 31.333 -71.001 34h-26c-19.333 0 -35.5 -0.833008 -48.5 -2.5s-25.5 -6.83398 -37.5 -15.501s-18 -21 -18 -37c0 -28.667 20.333 -48.334 61 -59.001c10 -2.66699 26.167 -6.5 48.5 -11.5s39.666 -9.33301 51.999 -13
s28.166 -8.66699 47.499 -15s34.333 -13.333 45 -21s21.834 -17.167 33.501 -28.5s20 -24.666 25 -39.999s7.5 -32.666 7.5 -51.999c0 -55.333 -20.167 -96.333 -60.5 -123s-92.166 -40.667 -155.499 -42h-10c-93.333 0 -158 29 -194 87c-4 6.66699 -6 15.334 -6 26.001z
" />
    <glyph glyph-name="t" unicode="t" 
d="M127 477c0 13.333 5.00098 25.001 15.001 35.001s21.667 15 35 15h77l2 101c0 14.667 4.83301 26.667 14.5 36s21.5 14 35.5 14s25.833 -5 35.5 -15s14.5 -21.667 14.5 -35l-2 -101h149c13.333 0 25 -5 35 -15s15 -21.667 15 -35s-5 -25 -15 -35s-21.667 -15 -35 -15
h-151l-3 -228c0 -17.333 0.166992 -30 0.5 -38s1.66602 -17.833 3.99902 -29.5s5.83301 -20 10.5 -25s11.5 -9.5 20.5 -13.5s20.167 -6 33.5 -6c23.333 1.33301 44.333 6.33301 63 15c8 3.33301 15.333 5 22 5c13.333 0 25 -5 35 -15s15 -21.667 15 -35
c0 -23.333 -12.667 -40.833 -38 -52.5s-55.666 -17.5 -90.999 -17.5c-30.667 0 -57 4 -79 12c-34.667 13.333 -59.334 35.666 -74.001 66.999s-22 72.333 -22 123v12l3 226h-75c-13.333 0 -25 5 -35 15s-15 21.667 -15 35z" />
    <glyph glyph-name="u" unicode="u" 
d="M127 257v228.999c0 13.333 5 25 15 35s21.333 15 34 15c13.333 0 25.166 -5 35.499 -15s15.5 -21.667 15.5 -35v-229c0 -59.333 6.83301 -102.666 20.5 -129.999s42.834 -41.666 87.501 -42.999h5c40 0 73.167 13.833 99.5 41.5s46.166 61.5 59.499 101.5v259
c0 14 5 25.833 15 35.5s21.667 14.5 35 14.5s25 -5 35 -15s15 -21.667 15 -35v-449c0 -13.333 -5 -25 -15 -35s-21.667 -15 -35 -15s-25 4.83301 -35 14.5s-15 21.5 -15 35.5v8c-46 -40.667 -101.333 -61 -166 -61c-51.333 2 -93.666 15.833 -126.999 41.5
s-56.333 60.5 -69 104.5c-6.66699 25.333 -10 67.666 -10 126.999z" />
    <glyph glyph-name="v" unicode="v" 
d="M116 486c0 14 5 25.835 15 35.502s21.667 14.5 35 14.5c22.667 0 38.334 -11.333 47.001 -34l148 -415h4l148 415c2.66699 9.33301 8.5 17.333 17.5 24s18.833 10 29.5 10c13.333 0 25 -5 35 -15s15 -21.667 15 -35c0 -6 -1 -11.667 -3 -17l-160 -449
c-2.66699 -8.66699 -8.66699 -16.334 -18 -23.001s-19 -10 -29 -10h-74c-10.667 0 -20.334 3.16699 -29.001 9.5s-14.667 14.166 -18 23.499l-160 449c-2 5.33301 -3 11 -3 17z" />
    <glyph glyph-name="w" unicode="w" 
d="M115 486c0 13.333 5.1709 25 15.5039 35s22.166 15 35.499 15c12.667 0 23.667 -4.33301 33 -13s14.666 -19 15.999 -31l40 -324l37 126c2.66699 10 8.5 18.5 17.5 25.5s19.167 10.5 30.5 10.5h46c24.667 0 40.667 -12 48 -36l37 -126l39 324c2 12 7.66699 22.333 17 31
s20.333 13 33 13c13.333 0 25.166 -4.66699 35.499 -14s15.5 -20 15.5 -32v-4l-56 -455c-1.33301 -12 -6.66602 -22.333 -15.999 -31s-20.333 -13 -33 -13h-49c-24.667 0 -40.667 11.667 -48 35l-46 159l-46 -159c-8.66699 -23.333 -24.334 -35 -47.001 -35h-50
c-12.667 0 -23.834 4.33301 -33.501 13s-15.167 19 -16.5 31z" />
    <glyph glyph-name="x" unicode="x" 
d="M147 37c0 10 3 19.667 9 29l140 200l-129 192c-5.33301 8.66699 -8 18 -8 28c0 14 5 25.833 15 35.5s21.667 14.5 35 14.5c17.333 0 29.333 -4.66699 36 -14l118 -175l118 175c9.33301 9.33301 21.333 14 36 14c13.333 0 25 -5 35 -15s15 -21.667 15 -35
c0 -10 -2.66699 -19.333 -8 -28l-130 -192l140 -200c6.66699 -10 10 -19.667 10 -29c0 -13.333 -5 -25 -15 -35s-21.667 -15 -35 -15c-18 0 -30.333 4.66699 -37 14l-129 185l-130 -185c-8.66699 -9.33301 -20.667 -14 -36 -14c-13.333 0 -25 5 -35 15s-15 21.667 -15 35z
" />
    <glyph glyph-name="y" unicode="y" 
d="M113 -131c0 14 5.00098 25.833 15.001 35.5s21.667 14.5 35 14.5c2.66699 0 6.16699 -0.166992 10.5 -0.5s7.5 -0.5 9.5 -0.5c9.33301 0 15.666 2.66699 18.999 8l110 203l-192 332c-4.66699 6.66699 -7 15 -7 25c0 14 5 25.833 15 35.5s21.667 14.5 35 14.5
s25 -5 35 -15l170 -289l157 289c11.333 10 24 15 38 15c13.333 0 25 -5 35 -15s15 -21.667 15 -35c0 -10 -2 -18.333 -6 -25l-310 -568c-6.66699 -20 -22 -38.333 -46 -55c-21.333 -14 -46 -21 -74 -21c-42.667 0 -64 17.333 -64 52z" />
    <glyph glyph-name="z" unicode="z" 
d="M147 49v35c0 11.333 4.33301 22 13 32l278 308h-232c-13.333 0 -25 4.83301 -35 14.5s-15 21.5 -15 35.5s4.83301 25.833 14.5 35.5s21.5 14.5 35.5 14.5h308c14 0 25.833 -4.83301 35.5 -14.5s14.5 -21.5 14.5 -35.5v-40c0 -12.667 -4.66699 -23.667 -14 -33l-272 -302
h259c13.333 0 25 -5 35 -15s15 -21.667 15 -35s-4.83301 -25 -14.5 -35s-21.5 -15 -35.5 -15h-340c-14 0 -25.833 5 -35.5 15s-14.5 21.667 -14.5 35z" />
    <glyph glyph-name="braceleft" unicode="{" 
d="M113 379c0 14 4.99805 26.0029 14.998 36.0029s21.667 15 35 15c55.333 0 90.333 8.33301 105 25c10.667 13.333 16 42.666 16 87.999c0 68.667 13 120.334 39 155.001c22.667 31.333 51.834 51.666 87.501 60.999s86.5 14 152.5 14c13.333 0 25 -5 35 -15
s15 -21.667 15 -35s-4.83301 -25 -14.5 -35s-21.5 -15 -35.5 -15h-36c-33.333 0 -59.833 -2.16699 -79.5 -6.5s-34.5 -13.5 -44.5 -27.5c-12.667 -16.667 -19 -48.667 -19 -96c0 -84 -17 -138.667 -51 -164c34 -34 51 -84 51 -150c0 -36 2.33301 -63.833 7 -83.5
s15.334 -34.834 32.001 -45.501c14 -8.66699 60.667 -13 140 -13c13.333 0 25 -5 35 -15s15 -21.667 15 -35s-5 -25 -15 -35s-21.667 -15 -35 -15c-98 0 -162 9.33301 -192 28c-58 33.333 -87 104.666 -87 213.999c0 38 -7 64.333 -21 79c-14.667 14.667 -48 22 -100 22
c-14 0 -25.833 4.66699 -35.5 14s-14.5 21 -14.5 35z" />
    <glyph glyph-name="bar" unicode="|" 
d="M313 -111v834c0 14 5 25.833 15 35.5s21.667 14.5 35 14.5s25 -5 35 -15s15 -21.667 15 -35v-834c0 -13.333 -4.83301 -25 -14.5 -35s-21.5 -15 -35.5 -15s-25.833 4.83301 -35.5 14.5s-14.5 21.5 -14.5 35.5z" />
    <glyph glyph-name="braceright" unicode="}" 
d="M113 37c0 14 4.99902 25.8301 14.999 35.4971s21.667 14.5 35 14.5h33c40 0 70.333 2.83301 91 8.5s35.334 18.5 44.001 38.5c6.66699 16 10 47.667 10 95c0 66 17 116 51 150c-34 25.333 -51 80 -51 164c0 34.667 -4.16699 62.167 -12.5 82.5s-24.5 33.833 -48.5 40.5
c-14 4.66699 -53 7 -117 7c-14 0 -25.833 4.83301 -35.5 14.5s-14.5 21.5 -14.5 35.5s5 25.833 15 35.5s21.667 14.5 35 14.5c65.333 0 116 -4.66699 152 -14s65.333 -29.666 88 -60.999c25.333 -34 38 -85.667 38 -155c0 -45.333 5.66699 -74.666 17 -87.999
c14 -16.667 47.667 -25 101 -25h4c13.333 0 25 -5.16699 35 -15.5s15 -22.166 15 -35.499s-5 -24.833 -15 -34.5s-21.667 -14.5 -35 -14.5c-52 0 -85.333 -7.33301 -100 -22s-22 -41 -22 -79c0 -108 -28.667 -179.333 -86 -214c-30 -18.667 -94 -28 -192 -28
c-13.333 0 -25 4.83301 -35 14.5s-15 21.5 -15 35.5z" />
    <glyph glyph-name="asciitilde" unicode="~" 
d="M127 597l-0.000976562 10c6.66699 33.333 23.5 60.833 50.5 82.5s57.167 32.5 90.5 32.5c1.33301 0 3.66602 -0.166992 6.99902 -0.5s5.66602 -0.5 6.99902 -0.5c33.333 -3.33301 70.333 -21 111 -53c28.667 -21.333 52.667 -32 72 -32c18 0 29.667 11.333 35 34
c0.666992 11.333 6 20.833 16 28.5s21 11.5 33 11.5c13.333 0 25 -5 35 -15s15 -21.667 15 -35c0 -2.66699 -0.666992 -6 -2 -10c-6.66699 -33.333 -23.167 -60.833 -49.5 -82.5s-56.166 -32.5 -89.499 -32.5c-1.33301 0 -3.66602 0.166992 -6.99902 0.5
s-5.66602 0.5 -6.99902 0.5c-33.333 3.33301 -70.333 21 -111 53c-28.667 21.333 -52.667 32 -72 32c-18 0 -29.667 -11.333 -35 -34c-2 -11.333 -7.66699 -20.833 -17 -28.5s-20 -11.5 -32 -11.5c-13.333 0 -25 5 -35 15s-15 21.667 -15 35z" />
    <glyph glyph-name="exclamdown" unicode="&#xa1;" 
d="M290 349v45c0 13.333 4.83301 25 14.5 35s21.5 15 35.5 15h46c14 0 25.833 -5 35.5 -15s14.5 -21.667 14.5 -35v-45c0 -13.333 -4.83301 -25 -14.5 -35s-21.5 -15 -35.5 -15h-46c-14 0 -25.833 5 -35.5 15s-14.5 21.667 -14.5 35zM313 -171v391c0 14 5 25.833 15 35.5
s21.667 14.5 35 14.5s25 -5 35 -15s15 -21.667 15 -35v-391c0 -13.333 -4.83301 -25 -14.5 -35s-21.5 -15 -35.5 -15s-25.833 4.83301 -35.5 14.5s-14.5 21.5 -14.5 35.5z" />
    <glyph glyph-name="currency" unicode="&#xa4;" 
d="M113 180c0 14 4.66797 25.6699 14.001 35.0029l52 52c-21.333 35.333 -32 73 -32 113s10.667 77.667 32 113l-52 52c-9.33301 9.33301 -14 21 -14 35s5 25.833 15 35.5s21.667 14.5 35 14.5c14 0 25.667 -5 35 -15l51 -51c35.333 21.333 73.333 32 114 32
c40 0 77.667 -10.667 113 -32l51 51c10 10 22 15 36 15c13.333 0 25 -5 35 -15s15 -21.667 15 -35c0 -14.667 -5 -26.334 -15 -35.001l-52 -52c22 -36 33 -73.667 33 -113c0 -40.667 -11 -78.334 -33 -113.001l52 -52c10 -8.66699 15 -20.334 15 -35.001
c0 -13.333 -5 -25 -15 -35s-21.667 -15 -35 -15c-14 0 -26 5 -36 15l-51 51c-34.667 -21.333 -72.334 -32 -113.001 -32s-78.667 10.667 -114 32l-51 -51c-9.33301 -10 -21 -15 -35 -15c-13.333 0 -25 4.83301 -35 14.5s-15 21.5 -15 35.5zM247.001 380.003
c0 -32 11.332 -59.332 33.999 -81.999s50 -34 82 -34c24.667 0 47.334 7.33301 68.001 22c2.66699 0 5.66699 1.83301 9 5.5s7 8 11 13s6.33301 7.83301 7 8.5c14 19.333 21 41.666 21 66.999c0 32 -11.333 59.333 -34 82s-50 34 -82 34s-59.333 -11.333 -82 -34
s-34 -50 -34 -82z" />
    <glyph glyph-name="section" unicode="&#xa7;" 
d="M121 388c0 41.333 17.3281 79.3262 51.9951 113.993c-17.333 24.667 -26 55.334 -26 92.001c0 58 21.333 102.333 64 133s97 46 163 46c50 0 92.5 -10.833 127.5 -32.5s58.833 -51.834 71.5 -90.501c2 -5.33301 3 -10.666 3 -15.999c0 -13.333 -5 -25 -15 -35
s-21.667 -15 -35 -15c-14 0 -25 4.33301 -33 13s-15.5 19.334 -22.5 32.001s-14.167 21.334 -21.5 26.001c-16 12 -41 18 -75 18c-84.667 0 -127 -26.333 -127 -79c0 -14 3.33301 -25.5 10 -34.5s17.334 -15.667 32.001 -20s27.334 -7.33301 38.001 -9s26.334 -3 47.001 -4
s34 -1.83301 40 -2.5c53.333 -5.33301 97.5 -20.333 132.5 -45s53.167 -60.667 54.5 -108v-4c0 -36.667 -13 -69.667 -39 -99c25.333 -26 38.333 -60.333 39 -103v-5c0 -56 -21.667 -98.5 -65 -127.5s-97.333 -44.167 -162 -45.5c-125.333 0 -205.666 44 -240.999 132
c-2 6 -3 11.667 -3 17c0 14 4.83301 26 14.5 36s21.5 15 35.5 15c22 0 37.667 -10.667 47 -32c18 -45.333 67 -68 147 -68c84.667 2.66699 127 28.667 127 78c0 12 -3.16699 22.167 -9.5 30.5s-13.666 14.833 -21.999 19.5s-19.833 8.5 -34.5 11.5s-27 4.83301 -37 5.5
s-23.667 1.33398 -41 2.00098s-29 1.33398 -35 2.00098c-36.667 2.66699 -69 8.83398 -97 18.501s-52.333 25.834 -73 48.501s-31 51 -31 85zM220.995 387.993c0 -11.333 4.33203 -20.998 12.999 -28.998s21.334 -13.667 38.001 -17s31.5 -5.66602 44.5 -6.99902
s30.167 -2.33301 51.5 -3s34.333 -1.33398 39 -2.00098c20 -2 40.333 -5.66699 61 -11c22 15.333 33 32.666 33 51.999c0 13.333 -6 24.166 -18 32.499s-23.833 13.5 -35.5 15.5s-26.5 3.66699 -44.5 5c-65.333 6.66699 -112.333 14 -141 22
c-27.333 -18.667 -41 -38 -41 -58z" />
    <glyph glyph-name="dieresis" unicode="&#xa8;" 
d="M227 323v57c0 13.333 5 25 15 35s21.667 15 35 15s25 -5 35 -15s15 -21.667 15 -35v-57c0 -13.333 -4.83301 -25 -14.5 -35s-21.5 -15 -35.5 -15s-25.833 5 -35.5 15s-14.5 21.667 -14.5 35zM399 323v57c0 14 5 25.833 15 35.5s21.667 14.5 35 14.5s25 -5 35 -15
s15 -21.667 15 -35v-57c0 -13.333 -5 -25 -15 -35s-21.667 -15 -35 -15c-14 0 -25.833 4.83301 -35.5 14.5s-14.5 21.5 -14.5 35.5z" />
    <glyph glyph-name="macron" unicode="&#xaf;" 
d="M127 586c0 13.333 5 25 15 35s21.667 15 35 15h372c13.333 0 25 -5 35 -15s15 -21.667 15 -35s-5 -25 -15 -35s-21.667 -15 -35 -15h-372c-14 0 -25.833 5 -35.5 15s-14.5 21.667 -14.5 35z" />
    <glyph glyph-name="acute" unicode="&#xb4;" 
d="M313 551c0 9.33301 2.66699 18.333 8 27l60 95c8.66699 9.33301 20.667 14 36 14c13.333 0 25 -5 35 -15s15 -21.667 15 -35c0 -9.33301 -2.66699 -18.333 -8 -27l-60 -95c-9.33301 -9.33301 -21.333 -14 -36 -14c-13.333 0 -25 4.83301 -35 14.5s-15 21.5 -15 35.5z" />
    <glyph glyph-name="cedilla" unicode="&#xb8;" 
d="M301 11c0 13.333 4.83203 25.002 14.499 35.002s21.5 15 35.5 15s25.833 -4.83301 35.5 -14.5s14.5 -21.5 14.5 -35.5v-53c31.333 -10 56.833 -28 76.5 -54s29.5 -56 29.5 -90c0 -42 -14.667 -77.5 -44 -106.5s-65 -43.5 -107 -43.5h-7
c-13.333 1.33301 -24.666 6.66602 -33.999 15.999s-14 20.666 -14 33.999s4.83301 25 14.5 35s21.5 15 35.5 15h3h2c14 0 26 5 36 15s15 21.667 15 35c0 14 -4.83301 25.833 -14.5 35.5s-21.167 14.5 -34.5 14.5h-4h-3c-13.333 0 -25 5 -35 15s-15 21.667 -15 35v97z" />
    <glyph glyph-name="questiondown" unicode="&#xbf;" 
d="M170 -32c0 63.333 26.6689 118 80.002 164c2.66699 2 9.16699 7.16699 19.5 15.5s17.666 14.5 21.999 18.5s9 9.66699 14 17s7.5 14 7.5 20v83c0 14 5 25.833 15 35.5s21.667 14.5 35 14.5s25 -5 35 -15s15 -21.667 15 -35v-83c0 -8 -0.5 -15.5 -1.5 -22.5
s-3 -13.833 -6 -20.5s-5.5 -12.5 -7.5 -17.5s-5.83301 -10.833 -11.5 -17.5s-9.66699 -11.667 -12 -15s-7.16602 -8.33301 -14.499 -15s-12 -11 -14 -13s-7.33301 -6.66699 -16 -14s-13.667 -11.333 -15 -12c-14.667 -13.333 -25.834 -26.333 -33.501 -39
s-11.5 -28.667 -11.5 -48v-9c0 -26 10 -46 30 -60s44 -21 72 -21c30 0 56.167 7.66699 78.5 23s33.5 36.333 33.5 63v4v2c0 13.333 4.83301 25 14.5 35s21.5 15 35.5 15c13.333 0 24.666 -4.5 33.999 -13.5s14.666 -20.167 15.999 -33.5v-11
c0 -52 -19.833 -95.167 -59.5 -129.5s-87.5 -52.5 -143.5 -54.5h-9c-56.667 0 -103.667 16 -141 48s-57.666 74.333 -60.999 127v14zM290.002 466v45c0 13.333 4.83301 25 14.5 35s21.5 15 35.5 15h46c14 0 25.833 -5 35.5 -15s14.5 -21.667 14.5 -35v-45
c0 -13.333 -4.83301 -25 -14.5 -35s-21.5 -15 -35.5 -15h-46c-14 0 -25.833 5 -35.5 15s-14.5 21.667 -14.5 35z" />
    <glyph glyph-name="Adieresis" unicode="&#xc4;" 
d="M113 666v57c0 14 5 25.833 15 35.5s21.667 14.5 35 14.5s25 -5 35 -15s15 -21.667 15 -35v-57c0 -13.333 -4.83301 -25 -14.5 -35s-21.5 -15 -35.5 -15s-25.833 4.83301 -35.5 14.5s-14.5 21.5 -14.5 35.5zM116 40c0 6.66699 0.666992 11.333 2 14l186 626
c8.66699 22 24.334 33 47.001 33h23c11.333 0 21.333 -3.5 30 -10.5s14.667 -15.5 18 -25.5l186 -623c1.33301 -5.33301 2 -10 2 -14c0 -13.333 -5 -25 -15 -35s-21.667 -15 -35 -15c-10.667 0 -20.5 3.5 -29.5 10.5s-14.833 15.5 -17.5 25.5l-35 117l-227 9l-38 -126
c-8.66699 -24 -24.334 -36 -47.001 -36c-13.333 0 -25 4.83301 -35 14.5s-15 21.5 -15 35.5zM280 250.999l167 -7l-84 282zM513 665.999v57c0 14 5 25.833 15 35.5s21.667 14.5 35 14.5s25 -5 35 -15s15 -21.667 15 -35v-57c0 -13.333 -4.83301 -25 -14.5 -35
s-21.5 -15 -35.5 -15s-25.833 4.83301 -35.5 14.5s-14.5 21.5 -14.5 35.5z" />
    <glyph glyph-name="AE" unicode="&#xc6;" 
d="M-55 39l162.998 628c2.66699 10.667 8.5 19.5 17.5 26.5s19.167 10.5 30.5 10.5h550c14 0 25.833 -5 35.5 -15s14.5 -21.667 14.5 -35s-5 -25 -15 -35s-21.667 -15 -35 -15h-415l49 -188h366c13.333 0 25 -5 35 -15s15 -21.667 15 -35s-4.83301 -25 -14.5 -35
s-21.5 -15 -35.5 -15h-341l56 -215h285c14 0 25.833 -5 35.5 -15s14.5 -21.667 14.5 -35s-5 -25 -15 -35s-21.667 -15 -35 -15h-323c-25.333 0 -41.666 12.667 -48.999 38l-41 160h-203l-44 -172c-9.33301 -24.667 -25.666 -37 -48.999 -37c-13.333 0 -25.333 5 -36 15
s-16 21.333 -16 34zM115.998 299h151l-76 291z" />
    <glyph glyph-name="Odieresis" unicode="&#xd6;" 
d="M113 666v57c0 14 5 25.833 15 35.5s21.667 14.5 35 14.5s25 -5 35 -15s15 -21.667 15 -35v-57c0 -13.333 -4.83301 -25 -14.5 -35s-21.5 -15 -35.5 -15s-25.833 4.83301 -35.5 14.5s-14.5 21.5 -14.5 35.5zM121 303c0 74.667 15.334 139.17 46.001 193.503
s73.334 91.166 128.001 110.499c20 7.33301 42.667 11 68 11c78 0 137.667 -30.333 179 -91s62 -135.334 62 -224.001c0 -118.667 -35.667 -208 -107 -268c-40.667 -32 -85.334 -48 -134.001 -48s-93.334 16 -134.001 48c-72 57.333 -108 146.666 -108 267.999z
M221.001 303.003c0 -104.667 31.001 -172.669 93.001 -204.002c3.33301 -0.666992 8.33301 -2.16699 15 -4.5s12.667 -4.16602 18 -5.49902s10.666 -2 15.999 -2c47.333 0 82.666 21.333 105.999 64s35 93.334 35 152.001c0 58 -11.667 108.5 -35 151.5
s-58.666 64.5 -105.999 64.5s-82.833 -21.5 -106.5 -64.5s-35.5 -93.5 -35.5 -151.5zM513.002 666.001v57c0 14 5 25.833 15 35.5s21.667 14.5 35 14.5s25 -5 35 -15s15 -21.667 15 -35v-57c0 -13.333 -4.83301 -25 -14.5 -35s-21.5 -15 -35.5 -15
s-25.833 4.83301 -35.5 14.5s-14.5 21.5 -14.5 35.5z" />
    <glyph glyph-name="Oslash" unicode="&#xd8;" 
d="M87 -20c0 8 2.33203 16.667 6.99902 26l74 121c-34.667 68 -52 143.667 -52 227v8c0 66 11.333 127.167 34 183.5s54 100.833 94 133.5c33.333 28 73 42 119 42c48.667 0 92.334 -17.333 131.001 -52l58 95c10.667 9.33301 23 14 37 14
c13.333 0 24.833 -4.83301 34.5 -14.5s14.5 -21.5 14.5 -35.5c0 -10 -2.33301 -18.333 -7 -25l-72 -121c34 -66 51 -142 51 -228c-0.666992 -59.333 -10 -116.333 -28 -171s-46.333 -101 -85 -139s-83.334 -57 -134.001 -57c-49.333 0 -93 18 -131 54l-52 -87
c-11.333 -16 -25.666 -24 -42.999 -24c-13.333 0 -25 5 -35 15s-15 21.667 -15 35zM215.999 354c0 -39.333 5.33301 -79 16 -119l210 347c-22.667 26 -49 39 -79 39c-33.333 0 -61.333 -16 -84 -48h-2c-40.667 -52 -61 -121.333 -61 -208v-11zM283.999 127
c23.333 -26.667 49.667 -40.001 79 -40.001c24 0 45.833 8.83301 65.5 26.5s35.167 40.334 46.5 68.001s20 56.5 26 86.5s9 58.667 9 86c0 41.333 -5.33301 82 -16 122z" />
    <glyph glyph-name="Udieresis" unicode="&#xdc;" 
d="M113 286l-0.000976562 251c0 14 5 25.833 15 35.5s21.667 14.5 35 14.5s25 -5 35 -15s15 -21.667 15 -35v-251c0 -76 10 -127 30 -153c24 -30.667 64 -46 120 -46c78.667 0 125.334 30.333 140.001 91c6.66699 26 10 62 10 108v251c0 14 5 25.833 15 35.5
s21.667 14.5 35 14.5s25 -5 35 -15s15 -21.667 15 -35v-251c0 -96.667 -19.667 -170.667 -59 -222s-103 -77 -191 -77s-151.667 25.667 -191 77s-59 125.333 -59 222zM112.999 723c0 14 5.00098 25.833 15.001 35.5s21.667 14.5 35 14.5h50c14 0 26 -4.83301 36 -14.5
s15 -21.5 15 -35.5s-4.83301 -25.833 -14.5 -35.5s-21.834 -14.5 -36.501 -14.5h-50c-14 0 -25.833 4.83301 -35.5 14.5s-14.5 21.5 -14.5 35.5zM461 723c0 13.333 5 25 15 35s21.667 15 35 15h52c13.333 0 25 -5 35 -15s15 -21.667 15 -35s-4.83301 -25 -14.5 -35
s-21.5 -15 -35.5 -15h-52c-14 0 -25.833 5 -35.5 15s-14.5 21.667 -14.5 35z" />
    <glyph glyph-name="germandbls" unicode="&#xdf;" 
d="M136 37l-0.00488281 420c0 38.667 2 72.834 6 102.501s11 58.167 21 85.5s23.5 49.833 40.5 67.5s38.833 31.667 65.5 42s58 15.5 94 15.5c66 0 120.333 -18.333 163 -55s64 -86 64 -148v-7c0 -60.667 -23 -111.334 -69 -152.001c59.333 -40 90 -103.333 92 -190
c0 -63.333 -15.333 -116.333 -46 -159s-73.667 -64.667 -129 -66c-13.333 0 -25.166 5.16699 -35.499 15.5s-15.5 21.833 -15.5 34.5s4.83301 23.834 14.5 33.501s20.834 15.167 33.501 16.5c26.667 0 46.334 12.167 59.001 36.5s19 53.166 19 86.499
c-1.33301 36 -10.666 65.833 -27.999 89.5s-42.333 35.5 -75 35.5h-3h-4c-13.333 0 -25 4.83301 -35 14.5s-15 21.5 -15 35.5v17c0 13.333 4.33301 24.833 13 34.5s19.334 14.5 32.001 14.5c25.333 2.66699 47 14.167 65 34.5s27 44.833 27 73.5c0 34 -11.667 60 -35 78
s-54 27 -92 27c-23.333 0 -43 -3.83301 -59 -11.5s-28.5 -17.167 -37.5 -28.5s-15.833 -27.333 -20.5 -48s-7.5 -39.667 -8.5 -57s-1.5 -40 -1.5 -68v-420c0 -13.333 -5 -25 -15 -35s-21.667 -15 -35 -15s-25 4.83301 -35 14.5s-15 21.5 -15 35.5z" />
    <glyph glyph-name="adieresis" unicode="&#xe4;" 
d="M127 154c0 28 4.33105 52.5 12.998 73.5s21.834 38 39.501 51s36.334 23.667 56.001 32s44.167 14.5 73.5 18.5s56 6.66699 80 8s53 2 87 2c-4 39.333 -14 66.333 -30 81c-16.667 16 -44.334 24 -83.001 24c-41.333 0 -77.666 -12.667 -108.999 -38
c-8.66699 -6.66699 -19 -10 -31 -10c-14 0 -25.833 4.83301 -35.5 14.5s-14.5 21.5 -14.5 35.5c0 20 6.33301 33 19 39c50.667 39.333 107.667 59 171 59c64.667 0 115 -16.667 151 -50c41.333 -39.333 62 -88.333 62 -147v-310c0 -13.333 -5 -25 -15 -35
s-21.667 -15 -35 -15s-25 4.83301 -35 14.5s-15 21.5 -15 35.5v8c-50 -40.667 -103.333 -61 -160 -61h-14c-45.333 4 -85.833 21.5 -121.5 52.5s-53.5 70.167 -53.5 117.5zM226.998 154c0 -20 8.83301 -36.333 26.5 -49s36.167 -19.667 55.5 -21h8
c58.667 0 111.667 38.667 159 116v40c-29.333 1.33301 -52.333 2 -69 2c-120 0 -180 -29.333 -180 -88zM226.998 608v58c0 13.333 5 25 15 35s21.667 15 35 15s25 -5 35 -15s15 -21.667 15 -35v-58c0 -13.333 -5 -24.833 -15 -34.5s-21.667 -14.5 -35 -14.5
s-25 4.83301 -35 14.5s-15 21.167 -15 34.5zM398.998 608v58c0 14 5 25.833 15 35.5s21.667 14.5 35 14.5s25 -5 35 -15s15 -21.667 15 -35v-58c0 -13.333 -5 -24.833 -15 -34.5s-21.667 -14.5 -35 -14.5c-14 0 -25.833 4.83301 -35.5 14.5s-14.5 21.167 -14.5 34.5z" />
    <glyph glyph-name="ae" unicode="&#xe6;" 
d="M-36 154c0 27.333 4.33105 51.5 12.998 72.5s21.834 38 39.501 51s36.334 23.833 56.001 32.5s44.167 15 73.5 19s56 6.66699 80 8s53 2 87 2c-2.66699 38 -12.667 65 -30 81c-16.667 16 -44.334 24 -83.001 24c-41.333 0 -77.666 -12.667 -108.999 -38
c-8.66699 -6.66699 -19 -10 -31 -10c-14 0 -25.833 5 -35.5 15s-14.5 21.667 -14.5 35s6.33301 26.333 19 39c50.667 39.333 107.667 59 171 59c36.667 0 70.667 -6.66699 102 -20s55.666 -32.666 72.999 -57.999c42.667 50 100.334 76 173.001 78h6
c74 0 130.833 -23.833 170.5 -71.5s59.5 -109.834 59.5 -186.501c0 -14 -4.83301 -25.833 -14.5 -35.5s-21.5 -14.5 -35.5 -14.5h-319c10 -101.333 59.667 -152 149 -152c14.667 0 26 0.666992 34 2c26 6 42 13.333 48 22v2c10.667 9.33301 23 14 37 14s26 -5 36 -15
s15 -21.667 15 -35c0 -30.667 -15.833 -53 -47.5 -67s-70.167 -21 -115.5 -21c-39.333 0 -71.333 4 -96 12c-23.333 8 -44 19 -62 33c-2 -12 -7.83301 -22.333 -17.5 -31s-20.5 -13 -32.5 -13c-13.333 0 -25 4.83301 -35 14.5s-15 21.5 -15 35.5v9
c-48 -41.333 -101.333 -62 -160 -62h-14c-45.333 4 -85.833 21.5 -121.5 52.5s-53.5 70.167 -53.5 117.5zM63.998 154c0 -20 8.83301 -36.333 26.5 -49s36.5 -19.667 56.5 -21h10c56 0 108 38.667 156 116v40c-29.333 1.33301 -52.333 2 -69 2c-120 0 -180 -29.333 -180 -88
zM419.998 336h258.001c-8 36.667 -21.333 63.834 -40 81.501s-48.667 26.5 -90 26.5c-33.333 0 -60.833 -9.83301 -82.5 -29.5s-36.834 -45.834 -45.501 -78.501z" />
    <glyph glyph-name="odieresis" unicode="&#xf6;" 
d="M113 263c0 82 22 149.335 66 202.002s105.333 79 184 79c76.667 0 137.5 -26.5 182.5 -79.5s67.5 -120.167 67.5 -201.5c0 -80.667 -22.333 -147.334 -67 -200.001s-105.667 -79 -183 -79c-78 0 -139.167 26.167 -183.5 78.5s-66.5 119.166 -66.5 200.499zM213 263.002
c0 -52.667 12.6709 -95.667 38.0039 -129s62.666 -50 111.999 -50s86.666 16.667 111.999 50s38 76.333 38 129s-12.833 96 -38.5 130s-62.834 51 -111.501 51s-85.834 -17 -111.501 -51s-38.5 -77.333 -38.5 -130zM227.004 608.002v58c0 13.333 5 25 15 35s21.667 15 35 15
s25 -5 35 -15s15 -21.667 15 -35v-58c0 -13.333 -5 -24.833 -15 -34.5s-21.667 -14.5 -35 -14.5s-25 4.83301 -35 14.5s-15 21.167 -15 34.5zM398.004 608.002v58c0 13.333 5 25 15 35s21.667 15 35 15s25.166 -5 35.499 -15s15.5 -21.667 15.5 -35v-58
c0 -13.333 -5.16699 -24.833 -15.5 -34.5s-22.166 -14.5 -35.499 -14.5s-25 4.83301 -35 14.5s-15 21.167 -15 34.5z" />
    <glyph glyph-name="oslash" unicode="&#xf8;" 
d="M70 -23c0 12.667 4 23.334 12 32.001l73 87c-28 46 -42 101.667 -42 167c0 82 22 149.333 66 202s105.333 79 184 79c52 0 97.333 -13 136 -39l71 82c10.667 9.33301 22.667 14 36 14c14 0 25.833 -5 35.5 -15s14.5 -21.667 14.5 -35c0 -11.333 -4 -22 -12 -32l-74 -88
c28.667 -47.333 43 -103.333 43 -168c0 -80.667 -22.333 -147.334 -67 -200.001s-105.667 -79 -183 -79c-53.333 0 -99.666 13 -138.999 39l-69 -81c-8.66699 -10 -20.334 -15 -35.001 -15c-13.333 0 -25 5 -35 15s-15 21.667 -15 35zM213 263
c0 -31.333 4.33398 -59 13.001 -83l209 247c-20.667 11.333 -44.667 17 -72 17c-48.667 0 -85.834 -17 -111.501 -51s-38.5 -77.333 -38.5 -130zM290.001 101c20.667 -11.333 45.001 -17 73.001 -17c49.333 0 86.666 16.667 111.999 50s38 76.333 38 129
c0 30.667 -4.66699 59 -14 85z" />
    <glyph glyph-name="udieresis" unicode="&#xfc;" 
d="M127 257v228.999c0 13.333 5 25 15 35s21.333 15 34 15c13.333 0 25.166 -5 35.499 -15s15.5 -21.667 15.5 -35v-229c0 -59.333 6.83301 -102.666 20.5 -129.999s42.834 -41.666 87.501 -42.999h5c40 0 73.167 13.833 99.5 41.5s46.166 61.5 59.499 101.5v259
c0 14 5 25.833 15 35.5s21.667 14.5 35 14.5s25 -5 35 -15s15 -21.667 15 -35v-449c0 -13.333 -5 -25 -15 -35s-21.667 -15 -35 -15s-25 4.83301 -35 14.5s-15 21.5 -15 35.5v8c-46 -40.667 -101.333 -61 -166 -61c-51.333 2 -93.666 15.833 -126.999 41.5
s-56.333 60.5 -69 104.5c-6.66699 25.333 -10 67.666 -10 126.999zM227 607.999v58c0 13.333 5 25 15 35s21.667 15 35 15s25 -5 35 -15s15 -21.667 15 -35v-58c0 -13.333 -5 -24.833 -15 -34.5s-21.667 -14.5 -35 -14.5s-25 4.83301 -35 14.5s-15 21.167 -15 34.5z
M399 607.999v58c0 14 5 25.833 15 35.5s21.667 14.5 35 14.5s25 -5 35 -15s15 -21.667 15 -35v-58c0 -13.333 -5 -24.833 -15 -34.5s-21.667 -14.5 -35 -14.5c-14 0 -25.833 4.83301 -35.5 14.5s-14.5 21.167 -14.5 34.5z" />
    <glyph glyph-name="dotlessi" unicode="&#x131;" 
d="M181 474c0 13.333 4.83301 25 14.5 35s21.5 15 35.5 15h180c14 0 25.833 -4.83301 35.5 -14.5s14.5 -21.5 14.5 -35.5v-437c0 -14 -5 -25.833 -15 -35.5s-21.667 -14.5 -35 -14.5s-25 5 -35 15s-15 21.667 -15 35v387h-130c-13.333 0 -25 5 -35 15s-15 21.667 -15 35z
" />
    <glyph glyph-name="OE" unicode="&#x152;" 
d="M-81 354v9c0 59.333 8.66699 115.333 26 168s45.333 97.5 84 134.5s84.334 55.5 137.001 55.5c56.667 0 105.667 -22.667 147 -68c1.33301 14 6.5 25.5 15.5 34.5s20.5 13.5 34.5 13.5h343c14 0 25.833 -5 35.5 -15s14.5 -21.667 14.5 -35s-5 -25 -15 -35
s-21.667 -15 -35 -15h-293v-185h244c13.333 0 24.833 -5 34.5 -15s14.5 -21.667 14.5 -35c0 -14 -4.66699 -25.833 -14 -35.5s-21 -14.5 -35 -14.5h-244v-215h293c14 0 25.833 -5 35.5 -15s14.5 -21.667 14.5 -35s-5 -25 -15 -35s-21.667 -15 -35 -15h-343
c-13.333 0 -25 4.83301 -35 14.5s-15 21.5 -15 35.5v6c-41.333 -46.667 -90.333 -70 -147 -70c-50.667 0 -95.334 19 -134.001 57s-67.167 84.333 -85.5 139s-27.5 111.667 -27.5 171zM19 354c0 -38 4.83203 -76.501 14.499 -115.501s26.167 -74 49.5 -105
s51 -46.5 83 -46.5s59.5 15.5 82.5 46.5s39.333 65.833 49 104.5s14.834 77.334 15.501 116.001c0 40.667 -4.83301 80.5 -14.5 119.5s-26 73.333 -49 103s-50.833 44.5 -83.5 44.5c-30 0 -59 -16.333 -87 -49c-40 -48 -60 -116.667 -60 -206v-12z" />
    <glyph glyph-name="oe" unicode="&#x153;" 
d="M-87 263c0 82 21.998 149.334 65.998 202.001s105.333 79 184 79c85.333 0 151 -32.667 197 -98c42.667 63.333 105.334 96 188.001 98h6c74 0 130.833 -23.833 170.5 -71.5s59.5 -109.834 59.5 -186.501c0 -14 -4.83301 -25.833 -14.5 -35.5s-21.5 -14.5 -35.5 -14.5
h-319c10 -101.333 59.667 -152 149 -152c14.667 0 26 0.666992 34 2c24 5.33301 40 13.333 48 24c10.667 9.33301 23 14 37 14s26 -5 36 -15s15 -21.667 15 -35c0 -30.667 -15.833 -53 -47.5 -67s-70.167 -21 -115.5 -21c-39.333 0 -71.333 4 -96 12
c-47.333 16.667 -84.666 45.334 -111.999 86.001c-46 -66.667 -112.667 -100 -200 -100c-78 0 -139.167 26.167 -183.5 78.5s-66.5 119.166 -66.5 200.499zM12.998 263.001c0 -52.667 12.833 -95.667 38.5 -129s62.834 -50 111.501 -50s85.834 16.667 111.501 50
s38.5 76.333 38.5 129s-12.833 96 -38.5 130s-62.834 51 -111.501 51s-85.834 -17 -111.501 -51s-38.5 -77.333 -38.5 -130zM419.998 336.001h258.001c-8 36.667 -21.333 63.834 -40 81.501s-48.667 26.5 -90 26.5c-33.333 0 -60.833 -9.83301 -82.5 -29.5
s-36.834 -45.834 -45.501 -78.501z" />
    <glyph glyph-name="dotlessj" unicode="&#x237;" 
d="M153 -129c0 14 4.83398 25.833 14.501 35.5s21.5 14.5 35.5 14.5c6 0 14.667 -0.166992 26 -0.5s19.666 -0.5 24.999 -0.5c24 0 43.333 2.83301 58 8.5s26 17.167 34 34.5c6.66699 14.667 10 46 10 94v367h-96c-13.333 0 -25 5 -35 15s-15 21.667 -15 35
s4.83301 25 14.5 35s21.5 15 35.5 15h146c14 0 25.833 -5 35.5 -15s14.5 -21.667 14.5 -35v-417c0 -134.667 -46.333 -212.667 -139 -234c-4 -1.33301 -42 -2 -114 -2c-13.333 0 -25 4.83301 -35 14.5s-15 21.5 -15 35.5z" />
    <glyph glyph-name="circumflex" unicode="&#x2c6;" 
d="M113 417c0 10 2.66699 19.333 8 28l205 308c9.33301 9.33301 21.333 14 36 14c18 0 30.333 -4.66699 37 -14l205 -308c6 -8 9 -17.333 9 -28c0 -13.333 -5 -25 -15 -35s-21.667 -15 -35 -15c-14 0 -26 5 -36 15l-165 174l-164 -174c-9.33301 -10 -21 -15 -35 -15
c-13.333 0 -25 4.83301 -35 14.5s-15 21.5 -15 35.5z" />
    <glyph glyph-name="caron" unicode="&#x2c7;" 
d="M113 888c0 14 4.83203 25.833 14.499 35.5s21.5 14.5 35.5 14.5c14.667 0 26.334 -4.66699 35.001 -14l165 -182l165 181c11.333 10 23 15 35 15c14 0 25.833 -5 35.5 -15s14.5 -21.667 14.5 -35c0 -12 -4.33301 -23 -13 -33l-202 -303
c-8.66699 -8.66699 -20.334 -13 -35.001 -13c-15.333 0 -27.666 4.33301 -36.999 13l-205 309c-5.33301 8.66699 -8 17.667 -8 27z" />
    <glyph glyph-name="breve" unicode="&#x2d8;" 
d="M113 885l0.00195312 3c0 14 4.83301 25.833 14.5 35.5s21.5 14.5 35.5 14.5c13.333 0 24.666 -4.5 33.999 -13.5s14.666 -19.833 15.999 -32.5c3.33301 -39.333 19.333 -72.333 48 -99s62.667 -40 102 -40s73.333 13.333 102 40s44.667 59.667 48 99
c1.33301 13.333 6.66602 24.333 15.999 33s20.666 13 33.999 13c14 0 25.833 -5 35.5 -15s14.5 -21.667 14.5 -35v-3c-4.66699 -65.333 -31.167 -120.333 -79.5 -165s-105.166 -67 -170.499 -67s-122.166 22.333 -170.499 67s-74.833 99.667 -79.5 165z" />
    <glyph glyph-name="dotaccent" unicode="&#x2d9;" 
d="M290 526v45c0 13.333 4.83301 25 14.5 35s21.5 15 35.5 15h46c14 0 25.833 -5 35.5 -15s14.5 -21.667 14.5 -35v-45c0 -13.333 -4.83301 -25 -14.5 -35s-21.5 -15 -35.5 -15h-46c-14 0 -25.833 5 -35.5 15s-14.5 21.667 -14.5 35z" />
    <glyph glyph-name="tilde" unicode="&#x2dc;" 
d="M127 597l-0.000976562 10c6.66699 33.333 23.5 60.833 50.5 82.5s57.167 32.5 90.5 32.5c1.33301 0 3.66602 -0.166992 6.99902 -0.5s5.66602 -0.5 6.99902 -0.5c33.333 -3.33301 70.333 -21 111 -53c28.667 -21.333 52.667 -32 72 -32c18 0 29.667 11.333 35 34
c0.666992 11.333 6 20.833 16 28.5s21 11.5 33 11.5c13.333 0 25 -5 35 -15s15 -21.667 15 -35c0 -2.66699 -0.666992 -6 -2 -10c-6.66699 -33.333 -23.167 -60.833 -49.5 -82.5s-56.166 -32.5 -89.499 -32.5c-1.33301 0 -3.66602 0.166992 -6.99902 0.5
s-5.66602 0.5 -6.99902 0.5c-33.333 3.33301 -70.333 21 -111 53c-28.667 21.333 -52.667 32 -72 32c-18 0 -29.667 -11.333 -35 -34c-2 -11.333 -7.66699 -20.833 -17 -28.5s-20 -11.5 -32 -11.5c-13.333 0 -25 5 -35 15s-15 21.667 -15 35z" />
    <glyph glyph-name="Gamma" unicode="&#x393;" 
d="M141 51v612c0 13.333 5 25 15 35s21.667 15 35 15h372c13.333 0 25 -5 35 -15s15 -21.667 15 -35v-120c0 -13.333 -4.83301 -25 -14.5 -35s-21.5 -15 -35.5 -15s-25.833 4.83301 -35.5 14.5s-14.5 21.5 -14.5 35.5v70h-272v-562c0 -14 -5 -25.833 -15 -35.5
s-21.667 -14.5 -35 -14.5s-25 5 -35 15s-15 21.667 -15 35z" />
    <glyph glyph-name="Theta" unicode="&#x398;" 
d="M116 354l0.000976562 8c0 66 11.333 127.167 34 183.5s54 100.833 94 133.5c33.333 28 73 42 119 42c50.667 0 95.334 -18.333 134.001 -55s67.167 -82.5 85.5 -137.5s27.5 -113.167 27.5 -174.5c-0.666992 -59.333 -10 -116.333 -28 -171s-46.333 -101 -85 -139
s-83.334 -57 -134.001 -57s-95.334 19 -134.001 57s-67.167 84.333 -85.5 139s-27.5 111.667 -27.5 171zM216.001 354c0 -38 4.83398 -76.502 14.501 -115.502s26.167 -74 49.5 -105s51 -46.5 83 -46.5c24 0 45.833 8.83301 65.5 26.5s35.167 40.334 46.5 68.001
s20 56.5 26 86.5s9 58.667 9 86c0 40.667 -4.83301 80.5 -14.5 119.5s-26 73.333 -49 103s-50.833 44.5 -83.5 44.5c-24 0 -43 -7 -57 -21c-28.667 -22 -50.834 -54.667 -66.501 -98s-23.5 -89.666 -23.5 -138.999v-9zM256.002 353.998c0 14 4.83301 25.833 14.5 35.5
s21.5 14.5 35.5 14.5h114c14 0 25.833 -5 35.5 -15s14.5 -21.667 14.5 -35s-5 -25 -15 -35s-21.667 -15 -35 -15h-114c-13.333 0 -25 4.83301 -35 14.5s-15 21.5 -15 35.5z" />
    <glyph glyph-name="Lambda" unicode="&#x39b;" 
d="M141 40c0 10.667 3.50098 20.502 10.501 29.502s15.833 15.167 26.5 18.5l136 580c2.66699 11.333 8.66699 20.666 18 27.999s19.666 11 30.999 11c12 0 22.5 -3.83301 31.5 -11.5s14.833 -16.834 17.5 -27.501l133 -580c26 -7.33301 39 -23.333 39 -48
c0 -14 -5 -25.833 -15 -35.5s-21.667 -14.5 -35 -14.5h-57c-13.333 0 -25 5 -35 15s-15 21.667 -15 35c0 16 6.33301 28.667 19 38l-83 357l-83 -357c12.667 -9.33301 19 -22 19 -38c0 -13.333 -5 -25 -15 -35s-21.667 -15 -35 -15h-58c-13.333 0 -25 5 -35 15
s-15 21.667 -15 35z" />
    <glyph glyph-name="Xi" unicode="&#x39e;" 
d="M124 51c0 13.333 4.83301 25 14.5 35s21.5 15 35.5 15h377c14 0 25.833 -4.83301 35.5 -14.5s14.5 -21.5 14.5 -35.5s-5 -25.833 -15 -35.5s-21.667 -14.5 -35 -14.5h-377c-13.333 0 -25 5 -35 15s-15 21.667 -15 35zM124 651c0 13.333 4.83301 25 14.5 35
s21.5 15 35.5 15h377c14 0 25.833 -4.83301 35.5 -14.5s14.5 -21.5 14.5 -35.5s-5 -25.833 -15 -35.5s-21.667 -14.5 -35 -14.5h-377c-13.333 0 -25 5 -35 15s-15 21.667 -15 35zM184 366c0 13.333 5 25 15 35s21.667 15 35 15h257c13.333 0 25 -4.83301 35 -14.5
s15 -21.5 15 -35.5s-4.83301 -25.833 -14.5 -35.5s-21.5 -14.5 -35.5 -14.5h-257c-14 0 -25.833 5 -35.5 15s-14.5 21.667 -14.5 35z" />
    <glyph glyph-name="Pi" unicode="&#x3a0;" 
d="M113 663c0 14 5 25.833 15 35.5s21.667 14.5 35 14.5h400c13.333 0 25 -5 35 -15s15 -21.667 15 -35c0 -20.667 -9.66699 -35.667 -29 -45v-578c0 -14 -5 -25.833 -15 -35.5s-21.667 -14.5 -35 -14.5s-25 5 -35 15s-15 21.667 -15 35v573h-243v-573
c0 -14 -5 -25.833 -15 -35.5s-21.667 -14.5 -35 -14.5s-25 5 -35 15s-15 21.667 -15 35v578c-18.667 8.66699 -28 23.667 -28 45z" />
    <glyph glyph-name="Sigma" unicode="&#x3a3;" 
d="M159 51c0 6 1 12.001 3 18.001l105 282l-105 283c-2 5.33301 -3 11 -3 17c0 14 4.83301 25.833 14.5 35.5s21.5 14.5 35.5 14.5h342c14 0 25.833 -4.83301 35.5 -14.5s14.5 -21.5 14.5 -35.5v-28c0 -14 -4.83301 -25.833 -14.5 -35.5s-21.5 -14.5 -35.5 -14.5
c-20.667 0 -35.667 9.33301 -45 28h-226l87 -232c2 -6 3 -12 3 -18c0 -6.66699 -1 -12.334 -3 -17.001l-87 -233h226c9.33301 19.333 24.333 29 45 29c13.333 0 25 -4.83301 35 -14.5s15 -21.5 15 -35.5v-29c0 -14 -5 -25.833 -15 -35.5s-21.667 -14.5 -35 -14.5h-342
c-13.333 0 -25 4.83301 -35 14.5s-15 21.5 -15 35.5z" />
    <glyph glyph-name="Upsilon" unicode="&#x3a5;" 
d="M156 571l-0.00195312 9c5.33301 30 19.5 53.833 42.5 71.5s48.833 26.5 77.5 26.5c33.333 0 62.333 -11.333 87 -34c24.667 22.667 53.667 34 87 34c28.667 0 54.334 -8.66699 77.001 -26s36.667 -41.333 42 -72v-9c0 -13.333 -4.83301 -25 -14.5 -35
s-21.167 -15 -34.5 -15c-12 0 -22.667 4 -32 12s-15 17.667 -17 29c-2 12 -9.33301 18 -22 18h-4c-21.333 -4.66699 -32 -26.667 -32 -66v-477c0 -13.333 -5 -25 -15 -35s-21.667 -15 -35 -15s-25 4.83301 -35 14.5s-15 21.5 -15 35.5v477c0 39.333 -10.667 61.333 -32 66
h-4c-9.33301 0 -17.166 -6.83301 -23.499 -20.5s-10.5 -21.5 -12.5 -23.5c-10 -10 -21.667 -15 -35 -15s-25 4.83301 -35 14.5s-15 21.5 -15 35.5z" />
    <glyph glyph-name="Phi" unicode="&#x3a6;" 
d="M113 263c0 74 17.5 135.331 52.5 183.998s84.167 79.667 147.5 93v29c-19.333 9.33301 -29 24.333 -29 45c0 13.333 4.83301 25 14.5 35s21.5 15 35.5 15h57c14 0 25.833 -4.83301 35.5 -14.5s14.5 -21.5 14.5 -35.5c0 -20.667 -9.33301 -35.667 -28 -45v-29
c62 -12 110.833 -43.333 146.5 -94s53.5 -111.667 53.5 -183s-17.667 -132.166 -53 -182.499s-84.333 -81.166 -147 -92.499v-29c18.667 -8.66699 28 -23.667 28 -45c0 -14 -5 -25.833 -15 -35.5s-21.667 -14.5 -35 -14.5h-57c-13.333 0 -25 5 -35 15s-15 21.667 -15 35
c0 20.667 9.66699 35.667 29 45v29c-63.333 11.333 -112.5 42 -147.5 92s-52.5 111 -52.5 183zM213 262.998c0 -42 8.5 -78.5 25.5 -109.5s41.833 -51.833 74.5 -62.5v343c-19.333 -7.33301 -31.333 -12.666 -36 -15.999c-42.667 -30.667 -64 -82.334 -64 -155.001z
M413 90.998c32.667 10.667 57.5 31.5 74.5 62.5s25.5 67.5 25.5 109.5c0 42.667 -8.5 79.5 -25.5 110.5s-41.833 51.833 -74.5 62.5v-345z" />
    <glyph glyph-name="Psi" unicode="&#x3a8;" 
d="M156 571c0 14 4.83789 25.833 14.5049 35.5s21.5 14.5 35.5 14.5c13.333 0 24.666 -4.5 33.999 -13.5s14.666 -20.167 15.999 -33.5c4.66699 -86 11.334 -180.667 20.001 -284c7.33301 -87.333 19.666 -145.333 36.999 -174v470c0 14 5 25.833 15 35.5
s21.667 14.5 35 14.5s25 -5 35 -15s15 -21.667 15 -35v-470c17.333 29.333 29.666 87.333 36.999 174c7.33301 79.333 14 174 20 284c1.33301 13.333 6.66602 24.5 15.999 33.5s20.666 13.5 33.999 13.5s25 -4.66699 35 -14s15 -20.333 15 -33v-3l-18 -290
c-16.667 -164.667 -63 -261 -139 -289v-49c0 -13.333 -5 -25 -15 -35s-21.667 -15 -35 -15s-25 4.83301 -35 14.5s-15 21.5 -15 35.5v49c-14.667 4.66699 -28 11.5 -40 20.5s-22.333 20.5 -31 34.5s-16.5 27.5 -23.5 40.5s-13 30.167 -18 51.5l-12.5 53.5
c-3.33301 14.333 -6.33301 34.333 -9 60l-6 58c-1.33301 13 -3 33 -5 60l-4 54.5z" />
    <glyph glyph-name="quoteleft" unicode="&#x2018;" 
d="M276 720c0 14 5.00098 25.8311 15.001 35.498s21.667 14.5 35 14.5h81c12 -1.33301 22.333 -6.66602 31 -15.999s13 -19.666 13 -30.999c0 -0.666992 -0.333008 -1.66699 -1 -3l-21 -292c-6 -27.333 -22.333 -41 -49 -41h-34c-13.333 0 -24.833 4 -34.5 12
s-14.834 18.333 -15.501 31z" />
    <glyph glyph-name="quoteright" unicode="&#x2019;" 
d="M276 720c0 14 5.00098 25.8311 15.001 35.498s21.667 14.5 35 14.5h81c12 -1.33301 22.333 -6.66602 31 -15.999s13 -19.666 13 -30.999c0 -0.666992 -0.333008 -1.66699 -1 -3l-21 -292c-6 -27.333 -22.333 -41 -49 -41h-34c-13.333 0 -24.833 4 -34.5 12
s-14.834 18.333 -15.501 31z" />
    <glyph glyph-name="quotedblleft" unicode="&#x201c;" 
d="M161 500l-0.000976562 219.999c0 13.333 5 25 15 35s21.667 15 35 15h29c13.333 0 25.166 -4.66699 35.499 -14s15.5 -19.666 15.5 -30.999c0 -0.666992 -0.166992 -1.5 -0.5 -2.5s-0.5 -1.83301 -0.5 -2.5l-29 -227c-1.33301 -11.333 -6.66602 -21.333 -15.999 -30
s-20.666 -13 -33.999 -13c-12.667 0 -24.167 5 -34.5 15s-15.5 21.667 -15.5 35zM452.999 499.999v220c0 14 5 25.833 15 35.5s21.667 14.5 35 14.5h23c12.667 0 24.167 -4.66699 34.5 -14s15.5 -20 15.5 -32v-4l-25 -230c-2.66699 -11.333 -8.16699 -20.833 -16.5 -28.5
s-18.833 -11.5 -31.5 -11.5c-13.333 0 -25 5 -35 15s-15 21.667 -15 35z" />
    <glyph glyph-name="quotedblright" unicode="&#x201d;" 
d="M161 500l-0.000976562 219.999c0 13.333 5 25 15 35s21.667 15 35 15h29c13.333 0 25.166 -4.66699 35.499 -14s15.5 -19.666 15.5 -30.999c0 -0.666992 -0.166992 -1.5 -0.5 -2.5s-0.5 -1.83301 -0.5 -2.5l-29 -227c-1.33301 -11.333 -6.66602 -21.333 -15.999 -30
s-20.666 -13 -33.999 -13c-12.667 0 -24.167 5 -34.5 15s-15.5 21.667 -15.5 35zM452.999 499.999v220c0 14 5 25.833 15 35.5s21.667 14.5 35 14.5h23c12.667 0 24.167 -4.66699 34.5 -14s15.5 -20 15.5 -32v-4l-25 -230c-2.66699 -11.333 -8.16699 -20.833 -16.5 -28.5
s-18.833 -11.5 -31.5 -11.5c-13.333 0 -25 5 -35 15s-15 21.667 -15 35z" />
    <glyph glyph-name="Omega" unicode="&#x2126;" 
d="M114 565c0 76 23.332 137.334 69.999 184.001c46.667 48 106.334 72 179.001 72c74 0 133.667 -26 179 -78s68 -116.667 68 -194c0 -29.333 -3.33301 -58.333 -10 -87l-91 -390c12 -10.667 18 -23.334 18 -38.001c0 -13.333 -5 -25 -15 -35s-21.667 -15 -35 -15h-28
c-13.333 0 -25 4.83301 -35 14.5s-15 21.5 -15 35.5v12l104 442c6 19.333 9 46.333 9 81c-2 44 -16.5 80.333 -43.5 109s-62.167 43 -105.5 43s-78.833 -14.5 -106.5 -43.5s-42.167 -65.167 -43.5 -108.5v-6c0 -18 3.33301 -44.333 10 -79
c28.667 -146 62.667 -291.333 102 -436c1.33301 -5.33301 2 -10 2 -14c0 -13.333 -5 -25 -15 -35s-21.667 -15 -35 -15h-28c-13.333 0 -25 4.83301 -35 14.5s-15 21.5 -15 35.5c0 16 5.33301 28.667 16 38c-34 130 -64 261 -90 393c-7.33301 36.667 -11 70 -11 100z" />
    <glyph glyph-name="arrowup" unicode="&#x2191;" 
d="M170 509c0 13.333 5 25 15 35l142 143c9.33301 9.33301 21.333 14 36 14c14 0 25.667 -4.66699 35 -14l143 -143c10 -11.333 15 -23 15 -35c0 -13.333 -4.83301 -25 -14.5 -35s-21.5 -15 -35.5 -15c-13.333 0 -25.333 4.66699 -36 14l-57 57v-490
c0 -13.333 -5 -25 -15 -35s-21.667 -15 -35 -15s-25 4.83301 -35 14.5s-15 21.5 -15 35.5v490l-58 -57c-9.33301 -9.33301 -21 -14 -35 -14s-25.833 5 -35.5 15s-14.5 21.667 -14.5 35z" />
    <glyph glyph-name="arrowdown" unicode="&#x2193;" 
d="M170 183c0 13.333 4.99902 25 14.999 35s21.667 15 35 15c14.667 0 26.334 -5 35.001 -15l58 -57v490c0 14 4.83301 25.833 14.5 35.5s21.5 14.5 35.5 14.5s25.833 -5 35.5 -15s14.5 -21.667 14.5 -35v-490l57 57c10 10 22 15 36 15c13.333 0 25 -5 35 -15
s15 -21.667 15 -35c0 -12.667 -5 -24.667 -15 -36l-143 -142c-9.33301 -10 -21 -15 -35 -15s-26 5 -36 15l-142 142c-10 10 -15 22 -15 36z" />
    <glyph glyph-name="Delta" unicode="&#x2206;" 
d="M140 40l174 630c2.66699 10.667 8.66699 19.5 18 26.5s19.666 10.5 30.999 10.5c10.667 0 20.5 -3.66699 29.5 -11s15.167 -16 18.5 -26l174 -630c0 -13.333 -5.16699 -25 -15.5 -35s-22.166 -15 -35.499 -15h-343c-14 0 -26 5.16699 -36 15.5s-15 21.833 -15 34.5z
M258 90h210l-105 380z" />
    <glyph glyph-name=".null" horiz-adv-x="0" 
 />
    <glyph glyph-name="nonmarkingreturn" 
 />
    <glyph glyph-name="quotesingle.alt" 
d="M313 551v86c0 14 5 25.833 15 35.5s21.667 14.5 35 14.5s25 -5 35 -15s15 -21.667 15 -35v-86c0 -13.333 -5 -25 -15 -35s-21.667 -15 -35 -15s-25 4.83301 -35 14.5s-15 21.5 -15 35.5z" />
    <glyph glyph-name="grave.alt" 
d="M259 637c0 14 5 25.833 15 35.5s21.667 14.5 35 14.5c18 0 30 -4.66699 36 -14l60 -95c5.33301 -8.66699 8 -17.667 8 -27c0 -13.333 -5 -25 -15 -35s-21.667 -15 -35 -15c-12.667 0 -24.667 5 -36 15l-61 94c-4.66699 7.33301 -7 16.333 -7 27z" />
    <glyph glyph-name="quotedbl.alt" 
d="M219 646v74c0 14 5 25.833 15 35.5s21.667 14.5 35 14.5s25 -5 35 -15s15 -21.667 15 -35v-74c0 -13.333 -4.83301 -25 -14.5 -35s-21.5 -15 -35.5 -15s-25.833 4.83301 -35.5 14.5s-14.5 21.5 -14.5 35.5zM407 646v74c0 13.333 5 25 15 35s21.667 15 35 15s25 -5 35 -15
s15 -21.667 15 -35v-74c0 -13.333 -4.83301 -25 -14.5 -35s-21.5 -15 -35.5 -15s-25.833 5 -35.5 15s-14.5 21.667 -14.5 35z" />
    <glyph glyph-name="bar.alt" 
d="M7 -71v714c0 13.333 5 25 15 35s21.667 15 35 15s25 -5 35 -15s15 -21.667 15 -35v-714c0 -13.333 -4.83301 -25 -14.5 -35s-21.5 -15 -35.5 -15s-25.833 5 -35.5 15s-14.5 21.667 -14.5 35z" />
  </font>
</defs>
</svg>
