<svg xmlns="http://www.w3.org/2000/svg" width="216.261" height="61.215" viewBox="0 0 216.261 61.215"><g transform="translate(-62.2 -39.599)"><g style="isolation:isolate"><path d="M113,57.5c-1.7-4.9-19.9-4.9-19.9-4.9,1.6-7.1,1.7-12.1-.3-12.9C90.5,38.8,86,44,81.5,52.5c-11,.5-19.3,2.9-19.3,5.7,0,2.4,5.8,4.4,14,5.3-.1.3-13.8,30.7-5.6,30.7S89,65.7,89.6,64a71.339,71.339,0,0,0,10-.9c-1.5,3.1-10.1,31.7-2.9,33C104.1,97.3,115.3,64.3,113,57.5Z" fill="#231815"/></g><g style="isolation:isolate"><path d="M188.4,42.5c-2.9-.6-6.6,6.2-8.2,15.3s-.6,17,2.4,17.6c2.9.6,6.6-6.2,8.2-15.3S191.3,43.2,188.4,42.5Z" fill="#231815"/></g><g style="isolation:isolate"><path d="M208.3,42c-3.3-.5-8,12.3-10.4,28.5s-1.6,29.8,1.8,30.3,8-12.3,10.4-28.5S211.7,42.5,208.3,42Z" fill="#231815"/></g><g style="isolation:isolate"><path d="M144.1,65.1c-12.5,0-22.7,2.1-22.7,4.6,0,2.6,10.1,4.6,22.7,4.6,12.5,0,22.7-2.1,22.7-4.6C166.8,67.1,156.7,65.1,144.1,65.1Z" fill="#231815"/></g><g style="isolation:isolate"><path d="M236.6,45c-3-.6-8,10.1-11.2,24-3.2,13.8-3.5,25.6-.5,26.2s8-10.1,11.2-24S239.5,45.6,236.6,45Z" fill="#231815"/></g><g style="isolation:isolate"><path d="M278.4,75.6c-1.3-7.8-18.7,5.3-20.9,6.7.5-3.3,1.7-9.4,1.7-13.4,0-12.6-3-22.8-6.7-22.8s-6.7,10.2-6.7,22.8c0,9.7,1.8,20.3,4.3,23.6h0a2.336,2.336,0,0,0,.7.7,2.668,2.668,0,0,0,1.7.8h.2C256.6,94.7,279.8,83.4,278.4,75.6Z" fill="#231815"/></g></g></svg>